# This file uses centimeters as units for non-parametric coordinates.

mtllib Chair.mtl
g default
v -1.170288 1.613632 4.348328
v 1.170288 1.613632 4.348328
v -1.170288 2.059723 4.348328
v 1.170288 2.059723 4.348328
v -1.170288 2.059723 2.329849
v 1.170288 2.059723 2.329849
v -1.170288 1.613632 2.329849
v 1.170288 1.613632 2.329849
v 0.834609 2.059723 2.329849
v 0.834609 1.613632 2.329849
v 0.834609 1.613632 4.348328
v 0.834609 2.059723 4.348328
v -0.819296 2.059723 2.329849
v -0.819296 1.613632 2.329849
v -0.819296 1.613632 4.348328
v -0.819296 2.059723 4.348328
v 1.170288 2.059723 2.679939
v 0.834609 2.059723 2.679939
v -0.819296 2.059723 2.679939
v -1.170288 2.059723 2.679939
v -1.170288 1.613632 2.679939
v -0.819296 1.613632 2.679939
v 0.834609 1.613632 2.679939
v 1.170288 1.613632 2.679939
v 1.170288 2.059723 3.996937
v 0.834609 2.059723 3.996937
v -0.819296 2.059723 3.996937
v -1.170288 2.059723 3.996937
v -1.170288 1.613632 3.996937
v -0.819296 1.613632 3.996937
v 0.834609 1.613632 3.996937
v 1.170288 1.613632 3.996937
v -1.170288 -0.127741 3.996937
v -0.819296 -0.127741 3.996937
v -0.819296 -0.127741 4.348328
v -1.170288 -0.127741 4.348328
v 0.834609 -0.127741 3.996937
v 0.834609 -0.127741 4.348328
v 1.170288 -0.127741 3.996937
v 1.170288 -0.127741 4.348328
v -1.170288 -0.127741 2.329849
v -0.819296 -0.127741 2.329849
v -0.819296 -0.127741 2.679939
v -1.170288 -0.127741 2.679939
v 0.834609 -0.127742 2.679939
v 1.170288 -0.127742 2.679939
v 0.834609 -0.127742 2.329849
v 1.170288 -0.127742 2.329849
v -1.170288 3.904645 4.348328
v -0.819296 3.904645 4.348328
v -0.819296 3.904645 3.996937
v -1.170288 3.904645 3.996937
v 0.834609 3.904645 4.348328
v 0.834609 3.904645 3.996937
v 1.170288 3.904645 4.348328
v 1.170288 3.904645 3.996937
v -0.819296 3.708183 3.996937
v -0.819296 3.708183 4.348328
v -1.170288 3.708183 4.348328
v -1.170288 3.708183 3.996937
v 0.834609 3.708183 3.996937
v 1.170288 3.708183 3.996937
v 1.170288 3.708183 4.348328
v 0.834609 3.708183 4.348328
v -0.819296 3.401636 3.996937
v -0.819296 3.401636 4.348328
v -1.170288 3.401636 4.348328
v -1.170288 3.401636 3.996937
v 0.834609 3.401636 3.996937
v 1.170288 3.401636 3.996937
v 1.170288 3.401636 4.348328
v 0.834609 3.401636 4.348328
v -0.819296 3.175816 3.996937
v -0.819296 3.175816 4.348328
v -1.170288 3.175816 4.348328
v -1.170288 3.175816 3.996937
v 0.834609 3.175816 3.996937
v 1.170288 3.175816 3.996937
v 1.170288 3.175816 4.348328
v 0.834609 3.175816 4.348328
v 0.007657 3.708183 3.996937
v 0.007657 3.708183 4.348328
v 0.007657 3.904645 3.996937
v 0.007657 3.904645 4.348328
v 0.007657 3.175816 3.996937
v 0.007657 3.175816 4.348328
v 0.007657 3.401636 3.996937
v 0.007657 3.401636 4.348328
vt 0.375000 0.000000
vt 0.625000 0.000000
vt 0.375000 0.250000
vt 0.625000 0.250000
vt 0.375000 0.500000
vt 0.625000 0.500000
vt 0.375000 0.750000
vt 0.625000 0.750000
vt 0.375000 1.000000
vt 0.625000 1.000000
vt 0.875000 0.000000
vt 0.875000 0.250000
vt 0.125000 0.000000
vt 0.125000 0.250000
vt 0.589146 0.500000
vt 0.589146 0.750000
vt 0.589146 0.000000
vt 0.589146 1.000000
vt 0.589146 0.250000
vt 0.412490 0.500000
vt 0.412490 0.750000
vt 0.412490 0.000000
vt 0.412490 1.000000
vt 0.412490 0.250000
vt 0.625000 0.456639
vt 0.831639 0.250000
vt 0.589146 0.456639
vt 0.412490 0.456639
vt 0.168361 0.250000
vt 0.375000 0.456639
vt 0.168361 0.000000
vt 0.375000 0.793361
vt 0.412490 0.793360
vt 0.589146 0.793361
vt 0.625000 0.793361
vt 0.831639 0.000000
vt 0.625000 0.293522
vt 0.668522 0.250000
vt 0.589146 0.293522
vt 0.412490 0.293522
vt 0.331478 0.250000
vt 0.375000 0.293522
vt 0.331478 0.000000
vt 0.375000 0.956478
vt 0.412490 0.956478
vt 0.589146 0.956478
vt 0.625000 0.956478
vt 0.668522 0.000000
vt 0.375000 0.956478
vt 0.412490 0.956478
vt 0.412490 1.000000
vt 0.375000 1.000000
vt 0.589146 1.000000
vt 0.589146 0.956478
vt 0.625000 0.956478
vt 0.625000 1.000000
vt 0.375000 0.750000
vt 0.412490 0.750000
vt 0.412490 0.793360
vt 0.375000 0.793361
vt 0.625000 0.793361
vt 0.589146 0.793361
vt 0.589146 0.750000
vt 0.625000 0.750000
vt 0.375000 0.250000
vt 0.412490 0.250000
vt 0.412490 0.293522
vt 0.375000 0.293522
vt 0.589146 0.293522
vt 0.589146 0.250000
vt 0.625000 0.250000
vt 0.625000 0.293522
vt 0.412490 0.293522
vt 0.412490 0.250000
vt 0.375000 0.250000
vt 0.375000 0.293522
vt 0.589146 0.293522
vt 0.625000 0.293522
vt 0.625000 0.250000
vt 0.589146 0.250000
vt 0.412490 0.293522
vt 0.412490 0.250000
vt 0.375000 0.250000
vt 0.375000 0.293522
vt 0.589146 0.293522
vt 0.625000 0.293522
vt 0.625000 0.250000
vt 0.589146 0.250000
vt 0.412490 0.293522
vt 0.412490 0.250000
vt 0.375000 0.250000
vt 0.375000 0.293522
vt 0.589146 0.293522
vt 0.625000 0.293522
vt 0.625000 0.250000
vt 0.589146 0.250000
vt 0.412490 0.250000
vt 0.412490 0.293522
vt 0.412490 0.293522
vt 0.412490 0.250000
vt 0.589146 0.293522
vt 0.589146 0.250000
vt 0.589146 0.250000
vt 0.589146 0.293522
vt 0.412490 0.250000
vt 0.412490 0.293522
vt 0.412490 0.293522
vt 0.412490 0.250000
vt 0.589146 0.293522
vt 0.589146 0.250000
vt 0.589146 0.250000
vt 0.589146 0.293522
vn 0.000000 0.000000 1.000000
vn 0.000000 0.000000 1.000000
vn 0.000000 0.000000 1.000000
vn 0.000000 0.000000 1.000000
vn 0.000000 1.000000 0.000000
vn 0.000000 1.000000 0.000000
vn 0.000000 1.000000 0.000000
vn 0.000000 1.000000 0.000000
vn 0.000000 0.000000 -1.000000
vn 0.000000 0.000000 -1.000000
vn 0.000000 0.000000 -1.000000
vn 0.000000 0.000000 -1.000000
vn 0.000000 -1.000000 0.000000
vn 0.000000 -1.000000 0.000000
vn 0.000000 -1.000000 0.000000
vn 0.000000 -1.000000 0.000000
vn 1.000000 0.000000 0.000000
vn 1.000000 0.000000 0.000000
vn 1.000000 0.000000 0.000000
vn 1.000000 0.000000 0.000000
vn -1.000000 0.000000 0.000000
vn -1.000000 0.000000 0.000000
vn -1.000000 0.000000 0.000000
vn -1.000000 0.000000 0.000000
vn 0.000000 0.000000 -1.000000
vn 0.000000 0.000000 -1.000000
vn 0.000000 0.000000 -1.000000
vn 0.000000 0.000000 -1.000000
vn 0.000000 -1.000000 0.000000
vn 0.000000 -1.000000 0.000000
vn 0.000000 -1.000000 0.000000
vn 0.000000 -1.000000 0.000000
vn 0.000000 0.000000 1.000000
vn 0.000000 0.000000 1.000000
vn 0.000000 0.000000 1.000000
vn 0.000000 0.000000 1.000000
vn 0.000000 1.000000 0.000000
vn 0.000000 1.000000 0.000000
vn 0.000000 1.000000 0.000000
vn 0.000000 1.000000 0.000000
vn 0.000000 -1.000000 0.000000
vn 0.000000 -1.000000 0.000000
vn 0.000000 -1.000000 0.000000
vn 0.000000 -1.000000 0.000000
vn 0.000000 1.000000 0.000000
vn 0.000000 1.000000 0.000000
vn 0.000000 1.000000 0.000000
vn 0.000000 1.000000 0.000000
vn 0.000000 1.000000 0.000000
vn 0.000000 1.000000 0.000000
vn 0.000000 1.000000 0.000000
vn 0.000000 1.000000 0.000000
vn 0.000000 1.000000 0.000000
vn 0.000000 1.000000 0.000000
vn 0.000000 1.000000 0.000000
vn 0.000000 1.000000 0.000000
vn -1.000000 0.000000 0.000000
vn -1.000000 0.000000 0.000000
vn -1.000000 0.000000 0.000000
vn -1.000000 0.000000 0.000000
vn 0.000000 -1.000000 0.000000
vn 0.000000 -1.000000 0.000000
vn 0.000000 -1.000000 0.000000
vn 0.000000 -1.000000 0.000000
vn 0.000000 -1.000000 0.000000
vn 0.000000 -1.000000 0.000000
vn 0.000000 -1.000000 0.000000
vn 0.000000 -1.000000 0.000000
vn 0.000000 -1.000000 0.000000
vn 0.000000 -1.000000 0.000000
vn 0.000000 -1.000000 0.000000
vn 0.000000 -1.000000 0.000000
vn 1.000000 0.000000 0.000000
vn 1.000000 0.000000 0.000000
vn 1.000000 0.000000 0.000000
vn 1.000000 0.000000 0.000000
vn 0.000000 1.000000 0.000000
vn 0.000000 1.000000 0.000000
vn 0.000000 -1.000000 0.000000
vn 0.000000 -1.000000 0.000000
vn 0.000000 -1.000000 0.000000
vn 0.000000 -1.000000 0.000000
vn 0.000000 0.000000 -1.000000
vn 0.000000 0.000000 -1.000000
vn 0.000000 0.000000 -1.000000
vn 0.000000 0.000000 -1.000000
vn 1.000000 0.000000 0.000000
vn 1.000000 0.000000 0.000000
vn 1.000000 0.000000 0.000000
vn 1.000000 0.000000 0.000000
vn 0.000000 0.000000 1.000000
vn 0.000000 0.000000 1.000000
vn -1.000000 0.000000 0.000000
vn -1.000000 0.000000 0.000000
vn -1.000000 0.000000 0.000000
vn -1.000000 0.000000 0.000000
vn -1.000000 0.000000 0.000000
vn -1.000000 0.000000 0.000000
vn 0.000000 0.000000 -1.000000
vn 0.000000 0.000000 -1.000000
vn 0.000000 0.000000 -1.000000
vn 0.000000 0.000000 -1.000000
vn 1.000000 0.000000 0.000000
vn 1.000000 0.000000 0.000000
vn 0.000000 0.000000 1.000000
vn 0.000000 0.000000 1.000000
vn 0.000000 0.000000 -1.000000
vn 0.000000 0.000000 -1.000000
vn 1.000000 0.000000 0.000000
vn 1.000000 0.000000 0.000000
vn 1.000000 0.000000 0.000000
vn 1.000000 0.000000 0.000000
vn 0.000000 0.000000 1.000000
vn 0.000000 0.000000 1.000000
vn 0.000000 0.000000 1.000000
vn 0.000000 0.000000 1.000000
vn -1.000000 0.000000 0.000000
vn -1.000000 0.000000 0.000000
vn 0.000000 0.000000 1.000000
vn 0.000000 0.000000 1.000000
vn 0.000000 0.000000 1.000000
vn 0.000000 0.000000 1.000000
vn -1.000000 0.000000 0.000000
vn -1.000000 0.000000 0.000000
vn -1.000000 0.000000 0.000000
vn -1.000000 0.000000 0.000000
vn 0.000000 0.000000 -1.000000
vn 0.000000 0.000000 -1.000000
vn 1.000000 0.000000 0.000000
vn 1.000000 0.000000 0.000000
vn 0.000000 0.000000 1.000000
vn 0.000000 0.000000 1.000000
vn 1.000000 0.000000 0.000000
vn 1.000000 0.000000 0.000000
vn 1.000000 0.000000 0.000000
vn 1.000000 0.000000 0.000000
vn 0.000000 0.000000 -1.000000
vn 0.000000 0.000000 -1.000000
vn 0.000000 0.000000 -1.000000
vn 0.000000 0.000000 -1.000000
vn -1.000000 0.000000 0.000000
vn -1.000000 0.000000 0.000000
vn -1.000000 0.000000 0.000000
vn -1.000000 0.000000 0.000000
vn -1.000000 0.000000 0.000000
vn -1.000000 0.000000 0.000000
vn 0.000000 0.000000 1.000000
vn 0.000000 0.000000 1.000000
vn 1.000000 0.000000 0.000000
vn 1.000000 0.000000 0.000000
vn 0.000000 0.000000 -1.000000
vn 0.000000 0.000000 -1.000000
vn 0.000000 0.000000 -1.000000
vn 0.000000 0.000000 -1.000000
vn 0.000000 0.000000 1.000000
vn 0.000000 0.000000 1.000000
vn 0.000000 0.000000 1.000000
vn 0.000000 0.000000 1.000000
vn -1.000000 0.000000 0.000000
vn -1.000000 0.000000 0.000000
vn -1.000000 0.000000 0.000000
vn -1.000000 0.000000 0.000000
vn 0.000000 0.000000 -1.000000
vn 0.000000 0.000000 -1.000000
vn 0.000000 0.000000 -1.000000
vn 0.000000 0.000000 -1.000000
vn 0.000000 0.000000 -1.000000
vn 0.000000 0.000000 -1.000000
vn 0.000000 0.000000 -1.000000
vn 0.000000 0.000000 -1.000000
vn 1.000000 0.000000 0.000000
vn 1.000000 0.000000 0.000000
vn 1.000000 0.000000 0.000000
vn 1.000000 0.000000 0.000000
vn 0.000000 0.000000 1.000000
vn 0.000000 0.000000 1.000000
vn 0.000000 0.000000 1.000000
vn 0.000000 0.000000 1.000000
vn 1.000000 0.000000 0.000000
vn 1.000000 0.000000 0.000000
vn 1.000000 0.000000 0.000000
vn 1.000000 0.000000 0.000000
vn 0.000000 0.000000 1.000000
vn 0.000000 0.000000 1.000000
vn -1.000000 0.000000 0.000000
vn -1.000000 0.000000 0.000000
vn 0.000000 0.000000 -1.000000
vn 0.000000 0.000000 -1.000000
vn 0.000000 0.000000 -1.000000
vn 0.000000 0.000000 -1.000000
vn 1.000000 0.000000 0.000000
vn 1.000000 0.000000 0.000000
vn 0.000000 0.000000 1.000000
vn 0.000000 0.000000 1.000000
vn -1.000000 0.000000 0.000000
vn -1.000000 0.000000 0.000000
vn -1.000000 0.000000 0.000000
vn -1.000000 0.000000 0.000000
vn 0.000000 -1.000000 0.000000
vn 0.000000 -1.000000 0.000000
vn 0.000000 -1.000000 0.000000
vn 0.000000 -1.000000 0.000000
vn 0.000000 0.000000 -1.000000
vn 0.000000 0.000000 -1.000000
vn 0.000000 1.000000 0.000000
vn 0.000000 1.000000 0.000000
vn 0.000000 0.000000 1.000000
vn 0.000000 0.000000 1.000000
vn 0.000000 -1.000000 0.000000
vn 0.000000 -1.000000 0.000000
vn 0.000000 -1.000000 0.000000
vn 0.000000 -1.000000 0.000000
vn 0.000000 0.000000 1.000000
vn 0.000000 0.000000 1.000000
vn 0.000000 1.000000 0.000000
vn 0.000000 1.000000 0.000000
vn 0.000000 0.000000 -1.000000
vn 0.000000 0.000000 -1.000000
vn 0.000000 -1.000000 0.000000
vn 0.000000 -1.000000 0.000000
vn 0.000000 -1.000000 0.000000
vn 0.000000 -1.000000 0.000000
vn 0.000000 0.000000 -1.000000
vn 0.000000 0.000000 -1.000000
vn 0.000000 1.000000 0.000000
vn 0.000000 1.000000 0.000000
vn 0.000000 1.000000 0.000000
vn 0.000000 1.000000 0.000000
vn 0.000000 0.000000 1.000000
vn 0.000000 0.000000 1.000000
vn 0.000000 -1.000000 0.000000
vn 0.000000 -1.000000 0.000000
vn 0.000000 -1.000000 0.000000
vn 0.000000 -1.000000 0.000000
vn 0.000000 0.000000 1.000000
vn 0.000000 0.000000 1.000000
vn 0.000000 1.000000 0.000000
vn 0.000000 1.000000 0.000000
vn 0.000000 1.000000 0.000000
vn 0.000000 1.000000 0.000000
vn 0.000000 0.000000 -1.000000
vn 0.000000 0.000000 -1.000000
s 1
g pCube2
usemtl initialShadingGroup
f 1/1/1 15/22/2 16/24/3 3/3/4
s 2
f 49/65/5 50/66/6 51/67/7 52/68/8
s 3
f 5/5/9 13/20/10 14/21/11 7/7/12
s off
f 33/49/13 34/50/14 35/51/15 36/52/16
s 4
f 2/2/17 32/48/18 25/38/19 4/4/20
s 5
f 29/43/21 1/1/22 3/3/23 28/41/24
s 3
f 9/15/25 6/6/26 8/8/27 10/16/28
s off
f 38/53/29 37/54/30 39/55/31 40/56/32
s 1
f 12/19/33 11/17/34 2/2/35 4/4/36
s 7
f 54/69/37 53/70/38 55/71/39 56/72/40
s 3
f 13/20/10 9/15/25 10/16/28 14/21/11
s 8
f 15/23/41 30/45/42 31/46/43 11/18/44
s 1
f 16/24/3 15/22/2 11/17/34 12/19/33
s 9
f 27/40/45 16/24/46 12/19/47 26/39/48
f 9/15/49 18/27/50 17/25/51 6/6/52
f 13/20/53 19/28/54 18/27/50 9/15/49
f 20/30/55 19/28/54 13/20/53 5/5/56
s 5
f 7/13/57 21/31/58 20/29/59 5/14/60
s off
f 41/57/61 42/58/62 43/59/63 44/60/64
s 8
f 23/34/65 22/33/66 14/21/67 10/16/68
s off
f 46/61/69 45/62/70 47/63/71 48/64/72
s 4
f 17/26/73 24/36/74 8/11/75 6/12/76
s 9
f 18/27/50 26/39/48 25/37/77 17/25/51
f 19/28/54 27/40/45 26/39/48 18/27/50
f 28/42/78 27/40/45 19/28/54 20/30/55
s 5
f 21/31/58 29/43/21 28/41/24 20/29/59
s 8
f 21/32/79 22/33/66 30/45/42 29/44/80
f 31/46/43 30/45/42 22/33/66 23/34/65
f 32/47/81 31/46/43 23/34/65 24/35/82
s 4
f 25/38/19 32/48/18 24/36/74 17/26/73
s off
f 29/44/83 30/45/84 34/50/85 33/49/86
f 30/45/87 15/23/88 35/51/89 34/50/90
s 1
f 15/23/2 1/9/1 36/52/91 35/51/92
s 5
f 1/9/22 29/44/21 33/49/93 36/52/94
s off
f 11/18/95 31/46/96 37/54/97 38/53/98
f 31/46/99 32/47/100 39/55/101 37/54/102
s 4
f 32/47/18 2/10/17 40/56/103 39/55/104
s 1
f 2/10/35 11/18/34 38/53/105 40/56/106
s 3
f 7/7/12 14/21/11 42/58/107 41/57/108
s off
f 14/21/109 22/33/110 43/59/111 42/58/112
f 22/33/113 21/32/114 44/60/115 43/59/116
s 5
f 21/32/58 7/7/57 41/57/117 44/60/118
s off
f 24/35/119 23/34/120 45/62/121 46/61/122
f 23/34/123 10/16/124 47/63/125 45/62/126
s 3
f 10/16/28 8/8/27 48/64/127 47/63/128
s 4
f 8/8/75 24/35/74 46/61/129 48/64/130
s 1
f 3/3/4 16/24/3 74/90/131 75/91/132
s off
f 16/24/133 27/40/134 73/89/135 74/90/136
s 12
f 27/40/137 28/42/138 76/92/139 73/89/140
s 5
f 28/42/24 3/3/23 75/91/141 76/92/142
s off
f 26/39/143 12/19/144 80/96/145 77/93/146
s 1
f 12/19/33 4/4/36 79/95/147 80/96/148
s 4
f 4/4/20 25/37/19 78/94/149 79/95/150
s 13
f 25/37/151 26/39/152 77/93/153 78/94/154
s 1
f 59/75/155 58/74/156 50/66/157 49/65/158
s 5
f 60/76/159 59/75/160 49/65/161 52/68/162
s 12
f 57/73/163 60/76/164 52/68/165 51/67/166
s 13
f 62/78/167 61/77/168 54/69/169 56/72/170
s 4
f 63/79/171 62/78/172 56/72/173 55/71/174
s 1
f 64/80/175 63/79/176 55/71/177 53/70/178
s off
f 66/82/179 65/81/180 57/73/181 58/74/182
s 1
f 67/83/183 66/82/184 58/74/156 59/75/155
s 5
f 68/84/185 67/83/186 59/75/160 60/76/159
s 12
f 65/81/187 68/84/188 60/76/164 57/73/163
s 13
f 70/86/189 69/85/190 61/77/168 62/78/167
s 4
f 71/87/191 70/86/192 62/78/172 63/79/171
s 1
f 72/88/193 71/87/194 63/79/176 64/80/175
s off
f 69/85/195 72/88/196 64/80/197 61/77/198
s 1
f 75/91/132 74/90/131 66/82/184 67/83/183
s 5
f 76/92/142 75/91/141 67/83/186 68/84/185
s 12
f 73/89/140 76/92/139 68/84/188 65/81/187
s 13
f 78/94/154 77/93/153 69/85/190 70/86/189
s 4
f 79/95/150 78/94/149 70/86/192 71/87/191
s 1
f 80/96/148 79/95/147 71/87/194 72/88/193
s off
f 58/74/199 57/73/200 81/98/201 82/97/202
s 12
f 57/73/163 51/67/166 83/99/203 81/98/204
s 2
f 51/67/7 50/66/6 84/100/205 83/99/206
s 1
f 50/66/157 58/74/156 82/97/207 84/100/208
s off
f 61/77/209 64/80/210 82/102/211 81/101/212
s 1
f 64/80/175 53/70/178 84/103/213 82/102/214
s 7
f 53/70/38 54/69/37 83/104/215 84/103/216
s 13
f 54/69/169 61/77/168 81/101/217 83/104/218
s off
f 74/90/219 73/89/220 85/106/221 86/105/222
s 12
f 73/89/140 65/81/187 87/107/223 85/106/224
s off
f 65/81/225 66/82/226 88/108/227 87/107/228
s 1
f 66/82/184 74/90/131 86/105/229 88/108/230
s off
f 77/93/231 80/96/232 86/110/233 85/109/234
s 1
f 80/96/148 72/88/193 88/111/235 86/110/236
s off
f 72/88/237 69/85/238 87/112/239 88/111/240
s 13
f 69/85/190 77/93/153 85/109/241 87/112/242
