# This file uses centimeters as units for non-parametric coordinates.

mtllib Key 2.mtl
g default
v -0.500000 0.247902 2.541315
v 0.500000 0.247902 2.541315
v -0.500000 0.849878 2.541315
v 0.500000 0.849878 2.541315
v -0.500000 0.849878 -5.310298
v 0.500000 0.849878 -5.310298
v -0.500000 0.247902 -5.310298
v 0.500000 0.247902 -5.310298
v -0.500000 0.849878 -4.703461
v -0.500000 0.247902 -4.703461
v 0.500000 0.247902 -4.703461
v 0.500000 0.849878 -4.703461
v -0.500000 0.849878 -4.003427
v -0.500000 0.247902 -4.003427
v 0.500000 0.247902 -4.003427
v 0.500000 0.849878 -4.003427
v -0.500000 0.849878 -3.105327
v -0.500000 0.247902 -3.105327
v 0.500000 0.247902 -3.105327
v 0.500000 0.849878 -3.105327
v -0.500000 0.849878 -2.822151
v -0.500000 0.247902 -2.822151
v 0.500000 0.247902 -2.822151
v 0.500000 0.849878 -2.822151
v -1.464943 0.247902 -5.310298
v -1.464943 0.247902 -4.703461
v -1.464943 0.849878 -4.703461
v -1.464943 0.849878 -5.310298
v -1.820710 0.247902 -4.003427
v -1.820710 0.247902 -3.105327
v -1.820710 0.849878 -3.105327
v -1.820710 0.849878 -4.003427
v 0.500000 0.849878 1.716509
v -0.500000 0.849878 1.716509
v -0.500000 0.247902 1.716510
v 0.500000 0.247902 1.716510
v 2.098035 0.247902 1.716510
v 2.098035 0.247902 2.541315
v 2.098035 0.849878 1.716509
v 2.098035 0.849878 2.541315
v -2.098035 0.247902 1.716510
v -2.098035 0.247902 2.541315
v -2.098035 0.849878 2.541315
v -2.098035 0.849878 1.716509
v 1.380971 0.849878 2.541315
v 1.380971 0.849878 1.716509
v 1.380971 0.247902 1.716510
v 1.380971 0.247902 2.541315
v -1.380971 0.849878 2.541315
v -1.380971 0.247902 2.541315
v -1.380971 0.247902 1.716510
v -1.380971 0.849878 1.716509
v 1.380971 0.247902 5.021337
v 1.380971 0.849878 5.021337
v 2.098035 0.247902 5.021337
v 2.098035 0.849878 5.021337
v -1.380971 0.849878 5.021337
v -1.380971 0.247902 5.021337
v -2.098035 0.849878 5.021337
v -2.098035 0.247902 5.021337
v 2.098035 0.849878 4.289042
v 2.098035 0.247902 4.289042
v 1.380971 0.247902 4.289042
v 1.380971 0.849878 4.289042
v -2.098035 0.849878 4.289042
v -1.380971 0.849878 4.289042
v -1.380971 0.247902 4.289042
v -2.098035 0.247902 4.289042
v 0.000000 0.247902 4.289042
v 0.000000 0.849878 4.289042
v 0.000000 0.247902 5.021337
v 0.000000 0.849878 5.021337
v -0.500000 0.849878 -2.303435
v -0.500000 0.247902 -2.303435
v 0.500000 0.247902 -2.303435
v 0.500000 0.849878 -2.303435
v -1.095637 0.247902 -2.822151
v -1.095637 0.247902 -2.303435
v -1.095637 0.849878 -2.303435
v -1.095637 0.849878 -2.822151
vt 0.375000 0.000000
vt 0.625000 0.000000
vt 0.375000 0.250000
vt 0.625000 0.250000
vt 0.375000 0.500000
vt 0.625000 0.500000
vt 0.375000 0.750000
vt 0.625000 0.750000
vt 0.375000 1.000000
vt 0.625000 1.000000
vt 0.875000 0.000000
vt 0.875000 0.250000
vt 0.125000 0.000000
vt 0.125000 0.250000
vt 0.139284 0.250000
vt 0.375000 0.485716
vt 0.139284 0.000000
vt 0.375000 0.764284
vt 0.625000 0.764284
vt 0.860716 0.000000
vt 0.625000 0.485716
vt 0.860716 0.250000
vt 0.160006 0.250000
vt 0.375000 0.464994
vt 0.160006 0.000000
vt 0.375000 0.785006
vt 0.625000 0.785006
vt 0.839994 0.000000
vt 0.625000 0.464994
vt 0.839994 0.250000
vt 0.172660 0.250000
vt 0.375000 0.452340
vt 0.172660 0.000000
vt 0.375000 0.797660
vt 0.625000 0.797660
vt 0.827340 0.000000
vt 0.625000 0.452340
vt 0.827340 0.250000
vt 0.194383 0.250000
vt 0.375000 0.430617
vt 0.194383 0.000000
vt 0.375000 0.819383
vt 0.625000 0.819383
vt 0.805617 0.000000
vt 0.625000 0.430617
vt 0.805617 0.250000
vt 0.125000 0.000000
vt 0.139284 0.000000
vt 0.139284 0.250000
vt 0.125000 0.250000
vt 0.160006 0.000000
vt 0.172660 0.000000
vt 0.172660 0.250000
vt 0.160006 0.250000
vt 0.625000 0.280378
vt 0.655378 0.250000
vt 0.344622 0.250000
vt 0.375000 0.280378
vt 0.344622 0.000000
vt 0.375000 0.969622
vt 0.625000 0.969622
vt 0.655378 0.000000
vt 0.625000 0.000000
vt 0.655378 0.000000
vt 0.655378 0.250000
vt 0.625000 0.250000
vt 0.344622 0.000000
vt 0.375000 0.000000
vt 0.375000 0.250000
vt 0.344622 0.250000
vt 0.625000 0.250000
vt 0.655378 0.250000
vt 0.655378 0.000000
vt 0.625000 0.000000
vt 0.375000 0.250000
vt 0.375000 0.000000
vt 0.344622 0.000000
vt 0.344622 0.250000
vt 0.625000 0.250000
vt 0.625000 0.000000
vt 0.625000 0.000000
vt 0.625000 0.250000
vt 0.375000 0.000000
vt 0.375000 0.250000
vt 0.375000 0.250000
vt 0.375000 0.000000
vt 0.625000 0.250000
vt 0.625000 0.000000
vt 0.625000 0.000000
vt 0.625000 0.250000
vt 0.375000 0.250000
vt 0.375000 0.250000
vt 0.375000 0.000000
vt 0.375000 0.000000
vt 0.625000 0.250000
vt 0.625000 0.000000
vt 0.625000 0.000000
vt 0.625000 0.250000
vt 0.375000 0.000000
vt 0.375000 0.250000
vt 0.375000 0.250000
vt 0.375000 0.000000
vt 0.213488 0.250000
vt 0.375000 0.411512
vt 0.213488 0.000000
vt 0.375000 0.838488
vt 0.625000 0.838488
vt 0.786512 0.000000
vt 0.625000 0.411512
vt 0.786512 0.250000
vt 0.194383 0.000000
vt 0.213488 0.000000
vt 0.213488 0.250000
vt 0.194383 0.250000
vn 0.000000 0.000000 1.000000
vn 0.000000 0.000000 1.000000
vn 0.000000 0.000000 1.000000
vn 0.000000 0.000000 1.000000
vn 0.000000 1.000000 0.000000
vn 0.000000 1.000000 0.000000
vn 0.000000 1.000000 0.000000
vn 0.000000 1.000000 0.000000
vn 0.000000 0.000000 -1.000000
vn 0.000000 0.000000 -1.000000
vn 0.000000 0.000000 -1.000000
vn 0.000000 0.000000 -1.000000
vn 0.000000 -1.000000 0.000000
vn 0.000000 -1.000000 0.000000
vn 0.000000 -1.000000 0.000000
vn 0.000000 -1.000000 0.000000
vn 1.000000 0.000000 0.000000
vn 1.000000 0.000000 0.000000
vn 1.000000 0.000000 0.000000
vn 1.000000 0.000000 0.000000
vn -1.000000 0.000000 0.000000
vn -1.000000 0.000000 0.000000
vn -1.000000 0.000000 0.000000
vn -1.000000 0.000000 0.000000
vn -1.000000 0.000000 0.000000
vn -1.000000 0.000000 0.000000
vn -1.000000 0.000000 0.000000
vn -1.000000 0.000000 0.000000
vn 0.000000 -1.000000 0.000000
vn 0.000000 -1.000000 0.000000
vn 0.000000 -1.000000 0.000000
vn 0.000000 -1.000000 0.000000
vn 1.000000 0.000000 0.000000
vn 1.000000 0.000000 0.000000
vn 1.000000 0.000000 0.000000
vn 1.000000 0.000000 0.000000
vn 0.000000 1.000000 0.000000
vn 0.000000 1.000000 0.000000
vn 0.000000 1.000000 0.000000
vn 0.000000 1.000000 0.000000
vn -1.000000 0.000000 0.000000
vn -1.000000 0.000000 0.000000
vn -1.000000 0.000000 0.000000
vn -1.000000 0.000000 0.000000
vn 0.000000 -1.000000 0.000000
vn 0.000000 -1.000000 0.000000
vn 1.000000 0.000000 0.000000
vn 1.000000 0.000000 0.000000
vn 0.000000 1.000000 0.000000
vn 0.000000 1.000000 0.000000
vn -1.000000 0.000000 0.000000
vn -1.000000 0.000000 0.000000
vn -1.000000 0.000000 0.000000
vn -1.000000 0.000000 0.000000
vn 0.000000 -1.000000 0.000000
vn 0.000000 -1.000000 0.000000
vn 1.000000 0.000000 0.000000
vn 1.000000 0.000000 0.000000
vn 0.000000 1.000000 0.000000
vn 0.000000 1.000000 0.000000
vn -1.000000 0.000000 0.000000
vn -1.000000 0.000000 0.000000
vn -1.000000 0.000000 0.000000
vn -1.000000 0.000000 0.000000
vn 0.000000 -1.000000 0.000000
vn 0.000000 -1.000000 0.000000
vn 1.000000 0.000000 0.000000
vn 1.000000 0.000000 0.000000
vn 0.000000 1.000000 0.000000
vn 0.000000 1.000000 0.000000
vn 0.000000 -1.000000 0.000000
vn 0.000000 -1.000000 0.000000
vn 0.000000 0.000000 1.000000
vn 0.000000 0.000000 1.000000
vn 0.000000 0.000000 1.000000
vn 0.000000 0.000000 1.000000
vn 0.000000 1.000000 0.000000
vn 0.000000 1.000000 0.000000
vn 0.000000 0.000000 -1.000000
vn 0.000000 0.000000 -1.000000
vn 0.000000 -1.000000 0.000000
vn 0.000000 -1.000000 0.000000
vn 0.000000 0.000000 1.000000
vn 0.000000 0.000000 1.000000
vn 0.000000 0.000000 1.000000
vn 0.000000 0.000000 1.000000
vn 0.000000 1.000000 0.000000
vn 0.000000 1.000000 0.000000
vn 0.000000 0.000000 -1.000000
vn 0.000000 0.000000 -1.000000
vn 0.000000 0.000000 -1.000000
vn 0.000000 0.000000 -1.000000
vn 0.000000 1.000000 0.000000
vn 0.000000 1.000000 0.000000
vn -1.000000 0.000000 0.000000
vn -1.000000 0.000000 0.000000
vn -1.000000 0.000000 0.000000
vn -1.000000 0.000000 0.000000
vn 0.000000 -1.000000 0.000000
vn 0.000000 -1.000000 0.000000
vn 1.000000 0.000000 0.000000
vn 1.000000 0.000000 0.000000
vn 1.000000 0.000000 0.000000
vn 1.000000 0.000000 0.000000
vn 0.000000 -1.000000 0.000000
vn 0.000000 -1.000000 0.000000
vn 0.000000 -0.000000 -1.000000
vn 0.000000 -0.000000 -1.000000
vn 0.000000 -0.000000 -1.000000
vn 0.000000 -0.000000 -1.000000
vn 0.000000 1.000000 0.000000
vn 0.000000 1.000000 0.000000
vn 0.000000 0.000000 1.000000
vn 0.000000 0.000000 1.000000
vn 0.000000 -1.000000 0.000000
vn 0.000000 -1.000000 0.000000
vn 0.000000 0.000000 1.000000
vn 0.000000 0.000000 1.000000
vn 0.000000 1.000000 0.000000
vn 0.000000 1.000000 0.000000
vn 0.000000 -0.000000 -1.000000
vn 0.000000 -0.000000 -1.000000
vn 0.000000 -0.000000 -1.000000
vn 0.000000 -0.000000 -1.000000
vn 0.000000 1.000000 0.000000
vn 0.000000 1.000000 0.000000
vn 0.000000 -0.000000 -1.000000
vn 0.000000 -0.000000 -1.000000
vn 0.000000 -1.000000 0.000000
vn 0.000000 -1.000000 0.000000
vn 0.000000 0.000000 1.000000
vn 0.000000 0.000000 1.000000
vn 0.000000 0.000000 1.000000
vn 0.000000 0.000000 1.000000
vn 0.000000 0.000000 1.000000
vn 0.000000 0.000000 1.000000
vn 0.000000 0.000000 1.000000
vn 0.000000 0.000000 1.000000
vn 0.000000 -1.000000 0.000000
vn 0.000000 -1.000000 0.000000
vn 0.000000 -0.000000 -1.000000
vn 0.000000 -0.000000 -1.000000
vn 0.000000 1.000000 0.000000
vn 0.000000 1.000000 0.000000
vn -1.000000 0.000000 0.000000
vn -1.000000 0.000000 0.000000
vn -1.000000 0.000000 0.000000
vn -1.000000 0.000000 0.000000
vn 0.000000 -1.000000 0.000000
vn 0.000000 -1.000000 0.000000
vn 1.000000 0.000000 0.000000
vn 1.000000 0.000000 0.000000
vn 0.000000 1.000000 0.000000
vn 0.000000 1.000000 0.000000
vn 1.000000 0.000000 0.000000
vn 1.000000 0.000000 0.000000
vn 1.000000 0.000000 0.000000
vn 1.000000 0.000000 0.000000
vn 0.000000 1.000000 0.000000
vn 0.000000 1.000000 0.000000
vn -1.000000 0.000000 0.000000
vn -1.000000 0.000000 0.000000
vn 0.000000 -1.000000 0.000000
vn 0.000000 -1.000000 0.000000
vn 1.000000 0.000000 0.000000
vn 1.000000 0.000000 0.000000
vn 0.000000 -1.000000 0.000000
vn 0.000000 -1.000000 0.000000
vn 0.000000 1.000000 0.000000
vn 0.000000 1.000000 0.000000
vn 0.000000 1.000000 0.000000
vn 0.000000 1.000000 0.000000
vn 0.000000 -1.000000 0.000000
vn 0.000000 -1.000000 0.000000
vn -1.000000 0.000000 0.000000
vn -1.000000 0.000000 0.000000
vn 0.000000 0.000000 -1.000000
vn 0.000000 0.000000 -1.000000
vn 0.000000 0.000000 -1.000000
vn 0.000000 0.000000 -1.000000
vn 0.000000 -1.000000 0.000000
vn 0.000000 -1.000000 0.000000
vn 0.000000 0.000000 1.000000
vn 0.000000 0.000000 1.000000
vn 0.000000 1.000000 0.000000
vn 0.000000 1.000000 0.000000
vn 0.000000 0.000000 -1.000000
vn 0.000000 0.000000 -1.000000
vn 0.000000 0.000000 -1.000000
vn 0.000000 0.000000 -1.000000
vn 0.000000 1.000000 0.000000
vn 0.000000 1.000000 0.000000
vn 0.000000 0.000000 1.000000
vn 0.000000 0.000000 1.000000
vn 0.000000 -1.000000 0.000000
vn 0.000000 -1.000000 0.000000
vn -1.000000 0.000000 0.000000
vn -1.000000 0.000000 0.000000
vn -1.000000 0.000000 0.000000
vn -1.000000 0.000000 0.000000
vn 0.000000 -1.000000 0.000000
vn 0.000000 -1.000000 0.000000
vn 0.000000 0.000000 1.000000
vn 0.000000 0.000000 1.000000
vn 0.000000 0.000000 1.000000
vn 0.000000 0.000000 1.000000
vn 0.000000 1.000000 0.000000
vn 0.000000 1.000000 0.000000
vn 0.000000 0.000000 -1.000000
vn 0.000000 0.000000 -1.000000
vn 0.000000 0.000000 -1.000000
vn 0.000000 0.000000 -1.000000
s 1
g pasted__pCube1 group
usemtl initialShadingGroup
f 1/1/1 2/2/2 4/4/3 3/3/4
s 2
f 3/3/5 4/4/6 33/55/7 34/58/8
s 3
f 5/5/9 6/6/10 8/8/11 7/7/12
s 4
f 35/60/13 36/61/14 2/10/15 1/9/16
s 5
f 38/63/17 37/64/18 39/65/19 40/66/20
s 6
f 41/67/21 42/68/22 43/69/23 44/70/24
s off
f 25/47/25 26/48/26 27/49/27 28/50/28
s 4
f 7/7/29 8/8/30 11/19/31 10/18/32
s 8
f 12/22/33 11/20/34 8/11/35 6/12/36
s 2
f 9/16/37 12/21/38 6/6/39 5/5/40
s off
f 10/17/41 14/25/42 13/23/43 9/15/44
s 4
f 10/18/32 11/19/31 15/27/45 14/26/46
s 8
f 16/30/47 15/28/48 11/20/34 12/22/33
s 2
f 13/24/49 16/29/50 12/21/38 9/16/37
s off
f 29/51/51 30/52/52 31/53/53 32/54/54
s 4
f 14/26/46 15/27/45 19/35/55 18/34/56
s 8
f 20/38/57 19/36/58 15/28/48 16/30/47
s 2
f 17/32/59 20/37/60 16/29/50 13/24/49
s off
f 18/33/61 22/41/62 21/39/63 17/31/64
s 4
f 18/34/56 19/35/55 23/43/65 22/42/66
s 8
f 24/46/67 23/44/68 19/36/58 20/38/57
s 2
f 21/40/69 24/45/70 20/37/60 17/32/59
s 4
f 7/13/29 10/17/32 26/48/71 25/47/72
s off
f 10/17/73 9/15/74 27/49/75 26/48/76
s 2
f 9/15/37 5/14/40 28/50/77 27/49/78
s 3
f 5/14/9 7/13/12 25/47/79 28/50/80
s 4
f 14/25/46 18/33/56 30/52/81 29/51/82
s off
f 18/33/83 17/31/84 31/53/85 30/52/86
s 2
f 17/31/59 13/23/49 32/54/87 31/53/88
s off
f 13/23/89 14/25/90 29/51/91 32/54/92
s 2
f 34/58/8 33/55/7 76/109/93 73/104/94
s off
f 74/105/95 35/59/96 34/57/97 73/103/98
s 4
f 74/106/99 75/107/100 36/61/14 35/60/13
s 8
f 33/56/101 36/62/102 75/108/103 76/110/104
s 4
f 2/2/15 36/62/14 47/73/105 48/74/106
s 10
f 36/62/107 33/56/108 46/72/109 47/73/110
s 2
f 33/56/7 4/4/6 45/71/111 46/72/112
s 1
f 4/4/3 2/2/2 48/74/113 45/71/114
s 4
f 35/59/13 1/1/16 50/76/115 51/77/116
s 1
f 1/1/1 3/3/4 49/75/117 50/76/118
s 2
f 3/3/5 34/57/8 52/78/119 49/75/120
s 11
f 34/57/121 35/59/122 51/77/123 52/78/124
s 2
f 46/72/112 45/71/111 40/66/125 39/65/126
s 10
f 47/73/110 46/72/109 39/65/127 37/64/128
s 4
f 48/74/106 47/73/105 37/64/129 38/63/130
s 12
f 54/79/131 53/80/132 55/81/133 56/82/134
s 13
f 58/83/135 57/84/136 59/85/137 60/86/138
s 4
f 51/77/116 50/76/115 42/68/139 41/67/140
s 11
f 52/78/124 51/77/123 41/67/141 44/70/142
s 2
f 49/75/120 52/78/119 44/70/143 43/69/144
s off
f 45/71/145 48/74/146 63/89/147 64/90/148
s 4
f 48/74/106 38/63/130 62/88/149 63/89/150
s 5
f 38/63/17 40/66/20 61/87/151 62/88/152
s 2
f 40/66/125 45/71/111 64/90/153 61/87/154
s off
f 50/76/155 49/75/156 66/92/157 67/93/158
s 2
f 49/75/120 43/69/144 65/91/159 66/92/160
s 6
f 43/69/23 42/68/22 68/94/161 65/91/162
s 4
f 42/68/139 50/76/115 67/93/163 68/94/164
s 5
f 62/88/152 61/87/151 56/82/165 55/81/166
s 4
f 63/89/150 62/88/149 55/81/167 53/80/168
s 2
f 61/87/154 64/90/153 54/79/169 56/82/170
f 66/92/160 65/91/159 59/85/171 57/84/172
s 4
f 68/94/164 67/93/163 58/83/173 60/86/174
s 6
f 65/91/162 68/94/161 60/86/175 59/85/176
s off
f 64/90/177 63/89/178 69/96/179 70/95/180
s 4
f 63/89/150 53/80/168 71/97/181 69/96/182
s 12
f 53/80/132 54/79/131 72/98/183 71/97/184
s 2
f 54/79/169 64/90/153 70/95/185 72/98/186
s off
f 67/93/187 66/92/188 70/100/189 69/99/190
s 2
f 66/92/160 57/84/172 72/101/191 70/100/192
s 13
f 57/84/136 58/83/135 71/102/193 72/101/194
s 4
f 58/83/173 67/93/163 69/99/195 71/102/196
s off
f 77/111/197 78/112/198 79/113/199 80/114/200
s 4
f 22/42/66 23/43/65 75/107/100 74/106/99
s 8
f 76/110/104 75/108/103 23/44/68 24/46/67
s 2
f 73/104/94 76/109/93 24/45/70 21/40/69
s 4
f 22/41/66 74/105/99 78/112/201 77/111/202
s off
f 74/105/203 73/103/204 79/113/205 78/112/206
s 2
f 73/103/94 21/39/69 80/114/207 79/113/208
s off
f 21/39/209 22/41/210 77/111/211 80/114/212
