# This file uses centimeters as units for non-parametric coordinates.

mtllib Key 1.mtl
g default
v 5.579744 0.247902 2.541315
v 6.579744 0.247902 2.541315
v 5.579744 0.849878 2.541315
v 6.579744 0.849878 2.541315
v 5.579744 0.849878 -5.310298
v 6.579744 0.849878 -5.310298
v 5.579744 0.247902 -5.310298
v 6.579744 0.247902 -5.310298
v 5.579744 0.849878 -4.703461
v 5.579744 0.247902 -4.703461
v 6.579744 0.247902 -4.703461
v 6.579744 0.849878 -4.703461
v 5.579744 0.849878 -3.823172
v 5.579744 0.247902 -3.823172
v 6.579744 0.247902 -3.823172
v 6.579744 0.849878 -3.823172
v 5.579744 0.849878 -3.285583
v 5.579744 0.247902 -3.285583
v 6.579744 0.247902 -3.285583
v 6.579744 0.849878 -3.285583
v 5.579744 0.849878 -2.362732
v 5.579744 0.247902 -2.362732
v 6.579744 0.247902 -2.362732
v 6.579744 0.849878 -2.362732
v 3.845547 0.247902 -5.310298
v 3.845547 0.247902 -4.703461
v 3.845547 0.849878 -4.703461
v 3.845547 0.849878 -5.310298
v 4.259034 0.247902 -3.823172
v 4.259034 0.247902 -3.285583
v 4.259034 0.849878 -3.285583
v 4.259034 0.849878 -3.823172
v 6.579744 0.849878 1.716509
v 5.579744 0.849878 1.716509
v 5.579744 0.247902 1.716510
v 6.579744 0.247902 1.716510
v 8.177780 0.247902 1.716510
v 8.177780 0.247902 2.541315
v 8.177780 0.849878 1.716509
v 8.177780 0.849878 2.541315
v 3.981709 0.247902 1.716510
v 3.981709 0.247902 2.541315
v 3.981709 0.849878 2.541315
v 3.981709 0.849878 1.716509
v 7.460716 0.849878 2.541315
v 7.460716 0.849878 1.716509
v 7.460716 0.247902 1.716510
v 7.460716 0.247902 2.541315
v 4.698773 0.849878 2.541315
v 4.698773 0.247902 2.541315
v 4.698773 0.247902 1.716510
v 4.698773 0.849878 1.716509
v 7.460716 0.247902 5.021337
v 7.460716 0.849878 5.021337
v 8.177780 0.247902 5.021337
v 8.177780 0.849878 5.021337
v 4.698773 0.849878 5.021337
v 4.698773 0.247902 5.021337
v 3.981709 0.849878 5.021337
v 3.981709 0.247902 5.021337
v 8.177780 0.849878 4.289042
v 8.177780 0.247902 4.289042
v 7.460716 0.247902 4.289042
v 7.460716 0.849878 4.289042
v 3.981709 0.849878 4.289042
v 4.698773 0.849878 4.289042
v 4.698773 0.247902 4.289042
v 3.981709 0.247902 4.289042
v 6.079744 0.247902 4.289042
v 6.079744 0.849878 4.289042
v 6.079744 0.247902 5.021337
v 6.079744 0.849878 5.021337
vt 0.375000 0.000000
vt 0.625000 0.000000
vt 0.375000 0.250000
vt 0.625000 0.250000
vt 0.375000 0.500000
vt 0.625000 0.500000
vt 0.375000 0.750000
vt 0.625000 0.750000
vt 0.375000 1.000000
vt 0.625000 1.000000
vt 0.875000 0.000000
vt 0.875000 0.250000
vt 0.125000 0.000000
vt 0.125000 0.250000
vt 0.139284 0.250000
vt 0.375000 0.485716
vt 0.139284 0.000000
vt 0.375000 0.764284
vt 0.625000 0.764284
vt 0.860716 0.000000
vt 0.625000 0.485716
vt 0.860716 0.250000
vt 0.160006 0.250000
vt 0.375000 0.464994
vt 0.160006 0.000000
vt 0.375000 0.785006
vt 0.625000 0.785006
vt 0.839994 0.000000
vt 0.625000 0.464994
vt 0.839994 0.250000
vt 0.172660 0.250000
vt 0.375000 0.452340
vt 0.172660 0.000000
vt 0.375000 0.797660
vt 0.625000 0.797660
vt 0.827340 0.000000
vt 0.625000 0.452340
vt 0.827340 0.250000
vt 0.194383 0.250000
vt 0.375000 0.430617
vt 0.194383 0.000000
vt 0.375000 0.819383
vt 0.625000 0.819383
vt 0.805617 0.000000
vt 0.625000 0.430617
vt 0.805617 0.250000
vt 0.125000 0.000000
vt 0.139284 0.000000
vt 0.139284 0.250000
vt 0.125000 0.250000
vt 0.160006 0.000000
vt 0.172660 0.000000
vt 0.172660 0.250000
vt 0.160006 0.250000
vt 0.625000 0.280378
vt 0.655378 0.250000
vt 0.344622 0.250000
vt 0.375000 0.280378
vt 0.344622 0.000000
vt 0.375000 0.969622
vt 0.625000 0.969622
vt 0.655378 0.000000
vt 0.625000 0.000000
vt 0.655378 0.000000
vt 0.655378 0.250000
vt 0.625000 0.250000
vt 0.344622 0.000000
vt 0.375000 0.000000
vt 0.375000 0.250000
vt 0.344622 0.250000
vt 0.625000 0.250000
vt 0.655378 0.250000
vt 0.655378 0.000000
vt 0.625000 0.000000
vt 0.375000 0.250000
vt 0.375000 0.000000
vt 0.344622 0.000000
vt 0.344622 0.250000
vt 0.625000 0.250000
vt 0.625000 0.000000
vt 0.625000 0.000000
vt 0.625000 0.250000
vt 0.375000 0.000000
vt 0.375000 0.250000
vt 0.375000 0.250000
vt 0.375000 0.000000
vt 0.625000 0.250000
vt 0.625000 0.000000
vt 0.625000 0.000000
vt 0.625000 0.250000
vt 0.375000 0.250000
vt 0.375000 0.250000
vt 0.375000 0.000000
vt 0.375000 0.000000
vt 0.625000 0.250000
vt 0.625000 0.000000
vt 0.625000 0.000000
vt 0.625000 0.250000
vt 0.375000 0.000000
vt 0.375000 0.250000
vt 0.375000 0.250000
vt 0.375000 0.000000
vn 0.000000 0.000000 1.000000
vn 0.000000 0.000000 1.000000
vn 0.000000 0.000000 1.000000
vn 0.000000 0.000000 1.000000
vn 0.000000 1.000000 0.000000
vn 0.000000 1.000000 0.000000
vn 0.000000 1.000000 0.000000
vn 0.000000 1.000000 0.000000
vn 0.000000 0.000000 -1.000000
vn 0.000000 0.000000 -1.000000
vn 0.000000 0.000000 -1.000000
vn 0.000000 0.000000 -1.000000
vn 0.000000 -1.000000 0.000000
vn 0.000000 -1.000000 0.000000
vn 0.000000 -1.000000 0.000000
vn 0.000000 -1.000000 0.000000
vn 1.000000 0.000000 0.000000
vn 1.000000 0.000000 0.000000
vn 1.000000 0.000000 0.000000
vn 1.000000 0.000000 0.000000
vn -1.000000 0.000000 0.000000
vn -1.000000 0.000000 0.000000
vn -1.000000 0.000000 0.000000
vn -1.000000 0.000000 0.000000
vn -1.000000 0.000000 0.000000
vn -1.000000 0.000000 0.000000
vn -1.000000 0.000000 0.000000
vn -1.000000 0.000000 0.000000
vn 0.000000 -1.000000 0.000000
vn 0.000000 -1.000000 0.000000
vn 0.000000 -1.000000 0.000000
vn 0.000000 -1.000000 0.000000
vn 1.000000 0.000000 0.000000
vn 1.000000 0.000000 0.000000
vn 1.000000 0.000000 0.000000
vn 1.000000 0.000000 0.000000
vn 0.000000 1.000000 0.000000
vn 0.000000 1.000000 0.000000
vn 0.000000 1.000000 0.000000
vn 0.000000 1.000000 0.000000
vn -1.000000 0.000000 0.000000
vn -1.000000 0.000000 0.000000
vn -1.000000 0.000000 0.000000
vn -1.000000 0.000000 0.000000
vn 0.000000 -1.000000 0.000000
vn 0.000000 -1.000000 0.000000
vn 1.000000 0.000000 0.000000
vn 1.000000 0.000000 0.000000
vn 0.000000 1.000000 0.000000
vn 0.000000 1.000000 0.000000
vn -1.000000 0.000000 0.000000
vn -1.000000 0.000000 0.000000
vn -1.000000 0.000000 0.000000
vn -1.000000 0.000000 0.000000
vn 0.000000 -1.000000 0.000000
vn 0.000000 -1.000000 0.000000
vn 1.000000 0.000000 0.000000
vn 1.000000 0.000000 0.000000
vn 0.000000 1.000000 0.000000
vn 0.000000 1.000000 0.000000
vn -1.000000 0.000000 0.000000
vn -1.000000 0.000000 0.000000
vn -1.000000 0.000000 0.000000
vn -1.000000 0.000000 0.000000
vn 0.000000 -1.000000 0.000000
vn 0.000000 -1.000000 0.000000
vn 1.000000 0.000000 0.000000
vn 1.000000 0.000000 0.000000
vn 0.000000 1.000000 0.000000
vn 0.000000 1.000000 0.000000
vn 0.000000 -1.000000 0.000000
vn 0.000000 -1.000000 0.000000
vn 0.000000 0.000000 1.000000
vn 0.000000 0.000000 1.000000
vn 0.000000 0.000000 1.000000
vn 0.000000 0.000000 1.000000
vn 0.000000 1.000000 0.000000
vn 0.000000 1.000000 0.000000
vn 0.000000 0.000000 -1.000000
vn 0.000000 0.000000 -1.000000
vn 0.000000 -1.000000 0.000000
vn 0.000000 -1.000000 0.000000
vn 0.000000 0.000000 1.000000
vn 0.000000 0.000000 1.000000
vn 0.000000 0.000000 1.000000
vn 0.000000 0.000000 1.000000
vn 0.000000 1.000000 0.000000
vn 0.000000 1.000000 0.000000
vn 0.000000 0.000000 -1.000000
vn 0.000000 0.000000 -1.000000
vn 0.000000 0.000000 -1.000000
vn 0.000000 0.000000 -1.000000
vn -1.000000 0.000000 0.000000
vn -1.000000 0.000000 0.000000
vn 1.000000 0.000000 0.000000
vn 1.000000 0.000000 0.000000
vn 0.000000 -1.000000 0.000000
vn 0.000000 -1.000000 0.000000
vn 0.000000 -0.000000 -1.000000
vn 0.000000 -0.000000 -1.000000
vn 0.000000 -0.000000 -1.000000
vn 0.000000 -0.000000 -1.000000
vn 0.000000 1.000000 0.000000
vn 0.000000 1.000000 0.000000
vn 0.000000 0.000000 1.000000
vn 0.000000 0.000000 1.000000
vn 0.000000 -1.000000 0.000000
vn 0.000000 -1.000000 0.000000
vn 0.000000 0.000000 1.000000
vn 0.000000 0.000000 1.000000
vn 0.000000 1.000000 0.000000
vn 0.000000 1.000000 0.000000
vn 0.000000 -0.000000 -1.000000
vn 0.000000 -0.000000 -1.000000
vn 0.000000 -0.000000 -1.000000
vn 0.000000 -0.000000 -1.000000
vn 0.000000 1.000000 0.000000
vn 0.000000 1.000000 0.000000
vn 0.000000 -0.000000 -1.000000
vn 0.000000 -0.000000 -1.000000
vn 0.000000 -1.000000 0.000000
vn 0.000000 -1.000000 0.000000
vn 0.000000 0.000000 1.000000
vn 0.000000 0.000000 1.000000
vn 0.000000 0.000000 1.000000
vn 0.000000 0.000000 1.000000
vn 0.000000 0.000000 1.000000
vn 0.000000 0.000000 1.000000
vn 0.000000 0.000000 1.000000
vn 0.000000 0.000000 1.000000
vn 0.000000 -1.000000 0.000000
vn 0.000000 -1.000000 0.000000
vn 0.000000 -0.000000 -1.000000
vn 0.000000 -0.000000 -1.000000
vn 0.000000 1.000000 0.000000
vn 0.000000 1.000000 0.000000
vn -1.000000 0.000000 0.000000
vn -1.000000 0.000000 0.000000
vn -1.000000 0.000000 0.000000
vn -1.000000 0.000000 0.000000
vn 0.000000 -1.000000 0.000000
vn 0.000000 -1.000000 0.000000
vn 1.000000 0.000000 0.000000
vn 1.000000 0.000000 0.000000
vn 0.000000 1.000000 0.000000
vn 0.000000 1.000000 0.000000
vn 1.000000 0.000000 0.000000
vn 1.000000 0.000000 0.000000
vn 1.000000 0.000000 0.000000
vn 1.000000 0.000000 0.000000
vn 0.000000 1.000000 0.000000
vn 0.000000 1.000000 0.000000
vn -1.000000 0.000000 0.000000
vn -1.000000 0.000000 0.000000
vn 0.000000 -1.000000 0.000000
vn 0.000000 -1.000000 0.000000
vn 1.000000 0.000000 0.000000
vn 1.000000 0.000000 0.000000
vn 0.000000 -1.000000 0.000000
vn 0.000000 -1.000000 0.000000
vn 0.000000 1.000000 0.000000
vn 0.000000 1.000000 0.000000
vn 0.000000 1.000000 0.000000
vn 0.000000 1.000000 0.000000
vn 0.000000 -1.000000 0.000000
vn 0.000000 -1.000000 0.000000
vn -1.000000 0.000000 0.000000
vn -1.000000 0.000000 0.000000
vn 0.000000 0.000000 -1.000000
vn 0.000000 0.000000 -1.000000
vn 0.000000 0.000000 -1.000000
vn 0.000000 0.000000 -1.000000
vn 0.000000 -1.000000 0.000000
vn 0.000000 -1.000000 0.000000
vn 0.000000 0.000000 1.000000
vn 0.000000 0.000000 1.000000
vn 0.000000 1.000000 0.000000
vn 0.000000 1.000000 0.000000
vn 0.000000 0.000000 -1.000000
vn 0.000000 0.000000 -1.000000
vn 0.000000 0.000000 -1.000000
vn 0.000000 0.000000 -1.000000
vn 0.000000 1.000000 0.000000
vn 0.000000 1.000000 0.000000
vn 0.000000 0.000000 1.000000
vn 0.000000 0.000000 1.000000
vn 0.000000 -1.000000 0.000000
vn 0.000000 -1.000000 0.000000
s 1
g pCube1
usemtl initialShadingGroup
f 1/1/1 2/2/2 4/4/3 3/3/4
s 2
f 3/3/5 4/4/6 33/55/7 34/58/8
s 3
f 5/5/9 6/6/10 8/8/11 7/7/12
s 4
f 35/60/13 36/61/14 2/10/15 1/9/16
s 5
f 38/63/17 37/64/18 39/65/19 40/66/20
s 6
f 41/67/21 42/68/22 43/69/23 44/70/24
s off
f 25/47/25 26/48/26 27/49/27 28/50/28
s 4
f 7/7/29 8/8/30 11/19/31 10/18/32
s 8
f 12/22/33 11/20/34 8/11/35 6/12/36
s 2
f 9/16/37 12/21/38 6/6/39 5/5/40
s off
f 10/17/41 14/25/42 13/23/43 9/15/44
s 4
f 10/18/32 11/19/31 15/27/45 14/26/46
s 8
f 16/30/47 15/28/48 11/20/34 12/22/33
s 2
f 13/24/49 16/29/50 12/21/38 9/16/37
s off
f 29/51/51 30/52/52 31/53/53 32/54/54
s 4
f 14/26/46 15/27/45 19/35/55 18/34/56
s 8
f 20/38/57 19/36/58 15/28/48 16/30/47
s 2
f 17/32/59 20/37/60 16/29/50 13/24/49
s 10
f 18/33/61 22/41/62 21/39/63 17/31/64
s 4
f 18/34/56 19/35/55 23/43/65 22/42/66
s 8
f 24/46/67 23/44/68 19/36/58 20/38/57
s 2
f 21/40/69 24/45/70 20/37/60 17/32/59
s 4
f 7/13/29 10/17/32 26/48/71 25/47/72
s off
f 10/17/73 9/15/74 27/49/75 26/48/76
s 2
f 9/15/37 5/14/40 28/50/77 27/49/78
s 3
f 5/14/9 7/13/12 25/47/79 28/50/80
s 4
f 14/25/46 18/33/56 30/52/81 29/51/82
s off
f 18/33/83 17/31/84 31/53/85 30/52/86
s 2
f 17/31/59 13/23/49 32/54/87 31/53/88
s off
f 13/23/89 14/25/90 29/51/91 32/54/92
s 2
f 34/58/8 33/55/7 24/45/70 21/40/69
s 10
f 22/41/62 35/59/93 34/57/94 21/39/63
s 4
f 22/42/66 23/43/65 36/61/14 35/60/13
s 8
f 33/56/95 36/62/96 23/44/68 24/46/67
s 4
f 2/2/15 36/62/14 47/73/97 48/74/98
s 11
f 36/62/99 33/56/100 46/72/101 47/73/102
s 2
f 33/56/7 4/4/6 45/71/103 46/72/104
s 1
f 4/4/3 2/2/2 48/74/105 45/71/106
s 4
f 35/59/13 1/1/16 50/76/107 51/77/108
s 1
f 1/1/1 3/3/4 49/75/109 50/76/110
s 2
f 3/3/5 34/57/8 52/78/111 49/75/112
s 12
f 34/57/113 35/59/114 51/77/115 52/78/116
s 2
f 46/72/104 45/71/103 40/66/117 39/65/118
s 11
f 47/73/102 46/72/101 39/65/119 37/64/120
s 4
f 48/74/98 47/73/97 37/64/121 38/63/122
s 13
f 54/79/123 53/80/124 55/81/125 56/82/126
s 14
f 58/83/127 57/84/128 59/85/129 60/86/130
s 4
f 51/77/108 50/76/107 42/68/131 41/67/132
s 12
f 52/78/116 51/77/115 41/67/133 44/70/134
s 2
f 49/75/112 52/78/111 44/70/135 43/69/136
s off
f 45/71/137 48/74/138 63/89/139 64/90/140
s 4
f 48/74/98 38/63/122 62/88/141 63/89/142
s 5
f 38/63/17 40/66/20 61/87/143 62/88/144
s 2
f 40/66/117 45/71/103 64/90/145 61/87/146
s off
f 50/76/147 49/75/148 66/92/149 67/93/150
s 2
f 49/75/112 43/69/136 65/91/151 66/92/152
s 6
f 43/69/23 42/68/22 68/94/153 65/91/154
s 4
f 42/68/131 50/76/107 67/93/155 68/94/156
s 5
f 62/88/144 61/87/143 56/82/157 55/81/158
s 4
f 63/89/142 62/88/141 55/81/159 53/80/160
s 2
f 61/87/146 64/90/145 54/79/161 56/82/162
f 66/92/152 65/91/151 59/85/163 57/84/164
s 4
f 68/94/156 67/93/155 58/83/165 60/86/166
s 6
f 65/91/154 68/94/153 60/86/167 59/85/168
s off
f 64/90/169 63/89/170 69/96/171 70/95/172
s 4
f 63/89/142 53/80/160 71/97/173 69/96/174
s 13
f 53/80/124 54/79/123 72/98/175 71/97/176
s 2
f 54/79/161 64/90/145 70/95/177 72/98/178
s off
f 67/93/179 66/92/180 70/100/181 69/99/182
s 2
f 66/92/152 57/84/164 72/101/183 70/100/184
s 14
f 57/84/128 58/83/127 71/102/185 72/101/186
s 4
f 58/83/165 67/93/155 69/99/187 71/102/188
