# This file uses centimeters as units for non-parametric coordinates.

mtllib Key 3.mtl
g default
v -6.455820 0.247902 2.541315
v -5.455820 0.247902 2.541315
v -6.455820 0.849878 2.541315
v -5.455820 0.849878 2.541315
v -6.455820 0.849878 -5.215940
v -5.455820 0.849878 -5.215940
v -6.455820 0.247902 -5.215940
v -5.455820 0.247902 -5.215940
v -6.455820 0.849878 -4.797820
v -6.455820 0.247902 -4.797820
v -5.455820 0.247902 -4.797820
v -5.455820 0.849878 -4.797820
v -6.455820 0.849878 -4.175287
v -6.455820 0.247902 -4.175287
v -5.455820 0.247902 -4.175287
v -5.455820 0.849878 -4.175287
v -6.455820 0.849878 -3.637698
v -6.455820 0.247902 -3.637698
v -5.455820 0.247902 -3.637698
v -5.455820 0.849878 -3.637698
v -6.455820 0.849878 -2.458637
v -6.455820 0.247902 -2.458637
v -5.455820 0.247902 -2.458637
v -5.455820 0.849878 -2.458637
v -7.569245 0.247902 -5.215940
v -7.569245 0.247902 -4.797820
v -7.569245 0.849878 -4.797820
v -7.569245 0.849878 -5.215940
v -7.776530 0.247902 -4.175287
v -7.776530 0.247902 -3.637698
v -7.776530 0.849878 -3.637698
v -7.776530 0.849878 -4.175287
v -5.455820 0.849878 1.716509
v -6.455820 0.849878 1.716509
v -6.455820 0.247902 1.716510
v -5.455820 0.247902 1.716510
v -3.857785 0.247902 1.716510
v -3.857785 0.247902 2.541315
v -3.857785 0.849878 1.716509
v -3.857785 0.849878 2.541315
v -8.053856 0.247902 1.716510
v -8.053856 0.247902 2.541315
v -8.053856 0.849878 2.541315
v -8.053856 0.849878 1.716509
v -4.574849 0.849878 2.541315
v -4.574849 0.849878 1.716509
v -4.574849 0.247902 1.716510
v -4.574849 0.247902 2.541315
v -7.336791 0.849878 2.541315
v -7.336791 0.247902 2.541315
v -7.336791 0.247902 1.716510
v -7.336791 0.849878 1.716509
v -4.574849 0.247902 5.021337
v -4.574849 0.849878 5.021337
v -3.857785 0.247902 5.021337
v -3.857785 0.849878 5.021337
v -7.336791 0.849878 5.021337
v -7.336791 0.247902 5.021337
v -8.053856 0.849878 5.021337
v -8.053856 0.247902 5.021337
v -3.857785 0.849878 4.289042
v -3.857785 0.247902 4.289042
v -4.574849 0.247902 4.289042
v -4.574849 0.849878 4.289042
v -8.053856 0.849878 4.289042
v -7.336791 0.849878 4.289042
v -7.336791 0.247902 4.289042
v -8.053856 0.247902 4.289042
v -5.955820 0.247902 4.289042
v -5.955820 0.849878 4.289042
v -5.955820 0.247902 5.021337
v -5.955820 0.849878 5.021337
v -6.455820 0.849878 -3.321621
v -6.455820 0.247902 -3.321621
v -5.455820 0.247902 -3.321621
v -5.455820 0.849878 -3.321621
v -7.083691 0.247902 -3.321621
v -7.083691 0.247902 -2.458637
v -7.083691 0.849878 -2.458637
v -7.083691 0.849878 -3.321621
v -7.083691 0.849878 -2.906190
v -7.083691 0.247902 -2.906190
v -6.455820 0.247902 -2.906190
v -5.455820 0.247902 -2.906190
v -5.455820 0.849878 -2.906190
v -6.455820 0.849878 -2.906190
v -7.435912 0.247902 -2.906190
v -7.435912 0.247902 -2.458637
v -7.435912 0.849878 -2.458637
v -7.435912 0.849878 -2.906190
vt 0.375000 0.000000
vt 0.625000 0.000000
vt 0.375000 0.250000
vt 0.625000 0.250000
vt 0.375000 0.500000
vt 0.625000 0.500000
vt 0.375000 0.750000
vt 0.625000 0.750000
vt 0.375000 1.000000
vt 0.625000 1.000000
vt 0.875000 0.000000
vt 0.875000 0.250000
vt 0.125000 0.000000
vt 0.125000 0.250000
vt 0.139284 0.250000
vt 0.375000 0.485716
vt 0.139284 0.000000
vt 0.375000 0.764284
vt 0.625000 0.764284
vt 0.860716 0.000000
vt 0.625000 0.485716
vt 0.860716 0.250000
vt 0.160006 0.250000
vt 0.375000 0.464994
vt 0.160006 0.000000
vt 0.375000 0.785006
vt 0.625000 0.785006
vt 0.839994 0.000000
vt 0.625000 0.464994
vt 0.839994 0.250000
vt 0.172660 0.250000
vt 0.375000 0.452340
vt 0.172660 0.000000
vt 0.375000 0.797660
vt 0.625000 0.797660
vt 0.827340 0.000000
vt 0.625000 0.452340
vt 0.827340 0.250000
vt 0.194383 0.250000
vt 0.375000 0.430617
vt 0.194383 0.000000
vt 0.375000 0.819383
vt 0.625000 0.819383
vt 0.805617 0.000000
vt 0.625000 0.430617
vt 0.805617 0.250000
vt 0.125000 0.000000
vt 0.139284 0.000000
vt 0.139284 0.250000
vt 0.125000 0.250000
vt 0.160006 0.000000
vt 0.172660 0.000000
vt 0.172660 0.250000
vt 0.160006 0.250000
vt 0.625000 0.280378
vt 0.655378 0.250000
vt 0.344622 0.250000
vt 0.375000 0.280378
vt 0.344622 0.000000
vt 0.375000 0.969622
vt 0.625000 0.969622
vt 0.655378 0.000000
vt 0.625000 0.000000
vt 0.655378 0.000000
vt 0.655378 0.250000
vt 0.625000 0.250000
vt 0.344622 0.000000
vt 0.375000 0.000000
vt 0.375000 0.250000
vt 0.344622 0.250000
vt 0.625000 0.250000
vt 0.655378 0.250000
vt 0.655378 0.000000
vt 0.625000 0.000000
vt 0.375000 0.250000
vt 0.375000 0.000000
vt 0.344622 0.000000
vt 0.344622 0.250000
vt 0.625000 0.250000
vt 0.625000 0.000000
vt 0.625000 0.000000
vt 0.625000 0.250000
vt 0.375000 0.000000
vt 0.375000 0.250000
vt 0.375000 0.250000
vt 0.375000 0.000000
vt 0.625000 0.250000
vt 0.625000 0.000000
vt 0.625000 0.000000
vt 0.625000 0.250000
vt 0.375000 0.250000
vt 0.375000 0.250000
vt 0.375000 0.000000
vt 0.375000 0.000000
vt 0.625000 0.250000
vt 0.625000 0.000000
vt 0.625000 0.000000
vt 0.625000 0.250000
vt 0.375000 0.000000
vt 0.375000 0.250000
vt 0.375000 0.250000
vt 0.375000 0.000000
vt 0.178045 0.250000
vt 0.375000 0.446955
vt 0.178045 0.000000
vt 0.375000 0.803045
vt 0.625000 0.803045
vt 0.821955 0.000000
vt 0.625000 0.446955
vt 0.821955 0.250000
vt 0.178045 0.000000
vt 0.194383 0.000000
vt 0.194383 0.250000
vt 0.178045 0.250000
vt 0.183490 0.250000
vt 0.183490 0.000000
vt 0.183490 0.000000
vt 0.375000 0.808490
vt 0.625000 0.808490
vt 0.816510 0.000000
vt 0.625000 0.441510
vt 0.816510 0.250000
vt 0.183490 0.250000
vt 0.375000 0.441510
vt 0.183490 0.000000
vt 0.194383 0.000000
vt 0.194383 0.250000
vt 0.183490 0.250000
vn 0.000000 0.000000 1.000000
vn 0.000000 0.000000 1.000000
vn 0.000000 0.000000 1.000000
vn 0.000000 0.000000 1.000000
vn 0.000000 1.000000 0.000000
vn 0.000000 1.000000 0.000000
vn 0.000000 1.000000 0.000000
vn 0.000000 1.000000 0.000000
vn 0.000000 0.000000 -1.000000
vn 0.000000 0.000000 -1.000000
vn 0.000000 0.000000 -1.000000
vn 0.000000 0.000000 -1.000000
vn 0.000000 -1.000000 0.000000
vn 0.000000 -1.000000 0.000000
vn 0.000000 -1.000000 0.000000
vn 0.000000 -1.000000 0.000000
vn 1.000000 0.000000 0.000000
vn 1.000000 0.000000 0.000000
vn 1.000000 0.000000 0.000000
vn 1.000000 0.000000 0.000000
vn -1.000000 0.000000 0.000000
vn -1.000000 0.000000 0.000000
vn -1.000000 0.000000 0.000000
vn -1.000000 0.000000 0.000000
vn -1.000000 0.000000 0.000000
vn -1.000000 0.000000 0.000000
vn -1.000000 0.000000 0.000000
vn -1.000000 0.000000 0.000000
vn 0.000000 -1.000000 0.000000
vn 0.000000 -1.000000 0.000000
vn 0.000000 -1.000000 0.000000
vn 0.000000 -1.000000 0.000000
vn 1.000000 0.000000 0.000000
vn 1.000000 0.000000 0.000000
vn 1.000000 0.000000 0.000000
vn 1.000000 0.000000 0.000000
vn 0.000000 1.000000 0.000000
vn 0.000000 1.000000 0.000000
vn 0.000000 1.000000 0.000000
vn 0.000000 1.000000 0.000000
vn -1.000000 0.000000 0.000000
vn -1.000000 0.000000 0.000000
vn -1.000000 0.000000 0.000000
vn -1.000000 0.000000 0.000000
vn 0.000000 -1.000000 0.000000
vn 0.000000 -1.000000 0.000000
vn 0.000000 -1.000000 0.000000
vn 0.000000 -1.000000 0.000000
vn 1.000000 0.000000 -0.000000
vn 1.000000 0.000000 -0.000000
vn 1.000000 0.000000 -0.000000
vn 1.000000 0.000000 -0.000000
vn 0.000000 1.000000 0.000000
vn 0.000000 1.000000 0.000000
vn 0.000000 1.000000 0.000000
vn 0.000000 1.000000 0.000000
vn -1.000000 0.000000 0.000000
vn -1.000000 0.000000 0.000000
vn -1.000000 0.000000 0.000000
vn -1.000000 0.000000 0.000000
vn 0.000000 -1.000000 0.000000
vn 0.000000 -1.000000 0.000000
vn 1.000000 0.000000 0.000000
vn 1.000000 0.000000 0.000000
vn 0.000000 1.000000 0.000000
vn 0.000000 1.000000 0.000000
vn -1.000000 0.000000 0.000000
vn -1.000000 0.000000 0.000000
vn -1.000000 0.000000 0.000000
vn -1.000000 0.000000 0.000000
vn 0.000000 -1.000000 0.000000
vn 0.000000 -1.000000 0.000000
vn 0.000000 -1.000000 0.000000
vn 0.000000 -1.000000 0.000000
vn 1.000000 0.000000 0.000000
vn 1.000000 0.000000 0.000000
vn 1.000000 0.000000 0.000000
vn 1.000000 0.000000 0.000000
vn 0.000000 1.000000 0.000000
vn 0.000000 1.000000 0.000000
vn 0.000000 1.000000 0.000000
vn 0.000000 1.000000 0.000000
vn 0.000000 -1.000000 0.000000
vn 0.000000 -1.000000 0.000000
vn 0.000000 0.000000 1.000000
vn 0.000000 0.000000 1.000000
vn 0.000000 0.000000 1.000000
vn 0.000000 0.000000 1.000000
vn 0.000000 1.000000 0.000000
vn 0.000000 1.000000 0.000000
vn 0.000000 0.000000 -1.000000
vn 0.000000 0.000000 -1.000000
vn 0.000000 -1.000000 0.000000
vn 0.000000 -1.000000 0.000000
vn 0.000000 0.000000 1.000000
vn 0.000000 0.000000 1.000000
vn 0.000000 0.000000 1.000000
vn 0.000000 0.000000 1.000000
vn 0.000000 1.000000 0.000000
vn 0.000000 1.000000 0.000000
vn 0.000000 0.000000 -1.000000
vn 0.000000 0.000000 -1.000000
vn 0.000000 0.000000 -1.000000
vn 0.000000 0.000000 -1.000000
vn -1.000000 0.000000 0.000000
vn -1.000000 0.000000 0.000000
vn -1.000000 0.000000 0.000000
vn -1.000000 0.000000 0.000000
vn 1.000000 0.000000 0.000000
vn 1.000000 0.000000 0.000000
vn 0.000000 -1.000000 0.000000
vn 0.000000 -1.000000 0.000000
vn 0.000000 -0.000000 -1.000000
vn 0.000000 -0.000000 -1.000000
vn 0.000000 -0.000000 -1.000000
vn 0.000000 -0.000000 -1.000000
vn 0.000000 1.000000 0.000000
vn 0.000000 1.000000 0.000000
vn 0.000000 0.000000 1.000000
vn 0.000000 0.000000 1.000000
vn 0.000000 -1.000000 0.000000
vn 0.000000 -1.000000 0.000000
vn 0.000000 0.000000 1.000000
vn 0.000000 0.000000 1.000000
vn 0.000000 1.000000 0.000000
vn 0.000000 1.000000 0.000000
vn 0.000000 -0.000000 -1.000000
vn 0.000000 -0.000000 -1.000000
vn 0.000000 -0.000000 -1.000000
vn 0.000000 -0.000000 -1.000000
vn 0.000000 1.000000 0.000000
vn 0.000000 1.000000 0.000000
vn 0.000000 -0.000000 -1.000000
vn 0.000000 -0.000000 -1.000000
vn 0.000000 -1.000000 0.000000
vn 0.000000 -1.000000 0.000000
vn 0.000000 0.000000 1.000000
vn 0.000000 0.000000 1.000000
vn 0.000000 0.000000 1.000000
vn 0.000000 0.000000 1.000000
vn 0.000000 0.000000 1.000000
vn 0.000000 0.000000 1.000000
vn 0.000000 0.000000 1.000000
vn 0.000000 0.000000 1.000000
vn 0.000000 -1.000000 0.000000
vn 0.000000 -1.000000 0.000000
vn 0.000000 -0.000000 -1.000000
vn 0.000000 -0.000000 -1.000000
vn 0.000000 1.000000 0.000000
vn 0.000000 1.000000 0.000000
vn -1.000000 0.000000 0.000000
vn -1.000000 0.000000 0.000000
vn -1.000000 0.000000 0.000000
vn -1.000000 0.000000 0.000000
vn 0.000000 -1.000000 0.000000
vn 0.000000 -1.000000 0.000000
vn 1.000000 0.000000 0.000000
vn 1.000000 0.000000 0.000000
vn 0.000000 1.000000 0.000000
vn 0.000000 1.000000 0.000000
vn 1.000000 0.000000 0.000000
vn 1.000000 0.000000 0.000000
vn 1.000000 0.000000 0.000000
vn 1.000000 0.000000 0.000000
vn 0.000000 1.000000 0.000000
vn 0.000000 1.000000 0.000000
vn -1.000000 0.000000 0.000000
vn -1.000000 0.000000 0.000000
vn 0.000000 -1.000000 0.000000
vn 0.000000 -1.000000 0.000000
vn 1.000000 0.000000 0.000000
vn 1.000000 0.000000 0.000000
vn 0.000000 -1.000000 0.000000
vn 0.000000 -1.000000 0.000000
vn 0.000000 1.000000 0.000000
vn 0.000000 1.000000 0.000000
vn 0.000000 1.000000 0.000000
vn 0.000000 1.000000 0.000000
vn 0.000000 -1.000000 0.000000
vn 0.000000 -1.000000 0.000000
vn -1.000000 0.000000 0.000000
vn -1.000000 0.000000 0.000000
vn 0.000000 0.000000 -1.000000
vn 0.000000 0.000000 -1.000000
vn 0.000000 0.000000 -1.000000
vn 0.000000 0.000000 -1.000000
vn 0.000000 -1.000000 0.000000
vn 0.000000 -1.000000 0.000000
vn 0.000000 0.000000 1.000000
vn 0.000000 0.000000 1.000000
vn 0.000000 1.000000 0.000000
vn 0.000000 1.000000 0.000000
vn 0.000000 0.000000 -1.000000
vn 0.000000 0.000000 -1.000000
vn 0.000000 0.000000 -1.000000
vn 0.000000 0.000000 -1.000000
vn 0.000000 1.000000 0.000000
vn 0.000000 1.000000 0.000000
vn 0.000000 0.000000 1.000000
vn 0.000000 0.000000 1.000000
vn 0.000000 -1.000000 0.000000
vn 0.000000 -1.000000 0.000000
vn -1.000000 0.000000 0.000000
vn -1.000000 0.000000 0.000000
vn -1.000000 0.000000 0.000000
vn -1.000000 0.000000 0.000000
vn 0.000000 -1.000000 0.000000
vn 0.000000 -1.000000 0.000000
vn 1.000000 0.000000 0.000000
vn 1.000000 0.000000 0.000000
vn 0.000000 1.000000 0.000000
vn 0.000000 1.000000 0.000000
vn 0.000000 -1.000000 0.000000
vn 0.000000 -1.000000 0.000000
vn 0.000000 0.000000 1.000000
vn 0.000000 0.000000 1.000000
vn 0.000000 0.000000 1.000000
vn 0.000000 0.000000 1.000000
vn 0.000000 1.000000 0.000000
vn 0.000000 1.000000 0.000000
vn 0.000000 0.000000 -1.000000
vn 0.000000 0.000000 -1.000000
vn 0.000000 0.000000 -1.000000
vn 0.000000 0.000000 -1.000000
vn -1.000000 0.000000 0.000000
vn -1.000000 0.000000 0.000000
vn -1.000000 0.000000 0.000000
vn -1.000000 0.000000 0.000000
vn 0.000000 -1.000000 0.000000
vn 0.000000 1.000000 0.000000
vn 0.000000 -1.000000 0.000000
vn 0.000000 -1.000000 0.000000
vn 0.000000 0.000000 1.000000
vn 0.000000 0.000000 1.000000
vn 0.000000 1.000000 0.000000
vn 0.000000 1.000000 0.000000
vn 0.000000 0.000000 -1.000000
vn 0.000000 0.000000 -1.000000
vn 0.000000 0.000000 -1.000000
vn 0.000000 0.000000 -1.000000
s 1
g pasted__pCube1 group1
usemtl initialShadingGroup
f 1/1/1 2/2/2 4/4/3 3/3/4
s 2
f 3/3/5 4/4/6 33/55/7 34/58/8
s 3
f 5/5/9 6/6/10 8/8/11 7/7/12
s 4
f 35/60/13 36/61/14 2/10/15 1/9/16
s 5
f 38/63/17 37/64/18 39/65/19 40/66/20
s 6
f 41/67/21 42/68/22 43/69/23 44/70/24
s off
f 25/47/25 26/48/26 27/49/27 28/50/28
s 7
f 7/7/29 8/8/30 11/19/31 10/18/32
s off
f 12/22/33 11/20/34 8/11/35 6/12/36
s 8
f 9/16/37 12/21/38 6/6/39 5/5/40
s off
f 10/17/41 14/25/42 13/23/43 9/15/44
s 4
f 10/18/45 11/19/46 15/27/47 14/26/48
s 10
f 16/30/49 15/28/50 11/20/51 12/22/52
s 2
f 13/24/53 16/29/54 12/21/55 9/16/56
s off
f 29/51/57 30/52/58 31/53/59 32/54/60
s 4
f 14/26/48 15/27/47 19/35/61 18/34/62
s 10
f 20/38/63 19/36/64 15/28/50 16/30/49
s 2
f 17/32/65 20/37/66 16/29/54 13/24/53
s off
f 87/125/67 88/126/68 89/127/69 90/128/70
s 4
f 83/118/71 84/119/72 23/43/73 22/42/74
s 10
f 24/46/75 23/44/76 84/120/77 85/122/78
s 2
f 21/40/79 24/45/80 85/121/81 86/124/82
s 7
f 7/13/29 10/17/32 26/48/83 25/47/84
s off
f 10/17/85 9/15/86 27/49/87 26/48/88
s 8
f 9/15/37 5/14/40 28/50/89 27/49/90
s 3
f 5/14/9 7/13/12 25/47/91 28/50/92
s 4
f 14/25/48 18/33/62 30/52/93 29/51/94
s off
f 18/33/95 17/31/96 31/53/97 30/52/98
s 2
f 17/31/65 13/23/53 32/54/99 31/53/100
s off
f 13/23/101 14/25/102 29/51/103 32/54/104
s 2
f 34/58/8 33/55/7 24/45/80 21/40/79
s off
f 22/41/105 35/59/106 34/57/107 21/39/108
s 4
f 22/42/74 23/43/73 36/61/14 35/60/13
s 10
f 33/56/109 36/62/110 23/44/76 24/46/75
s 4
f 2/2/15 36/62/14 47/73/111 48/74/112
s 14
f 36/62/113 33/56/114 46/72/115 47/73/116
s 2
f 33/56/7 4/4/6 45/71/117 46/72/118
s 1
f 4/4/3 2/2/2 48/74/119 45/71/120
s 4
f 35/59/13 1/1/16 50/76/121 51/77/122
s 1
f 1/1/1 3/3/4 49/75/123 50/76/124
s 2
f 3/3/5 34/57/8 52/78/125 49/75/126
s 15
f 34/57/127 35/59/128 51/77/129 52/78/130
s 2
f 46/72/118 45/71/117 40/66/131 39/65/132
s 14
f 47/73/116 46/72/115 39/65/133 37/64/134
s 4
f 48/74/112 47/73/111 37/64/135 38/63/136
s 16
f 54/79/137 53/80/138 55/81/139 56/82/140
s 17
f 58/83/141 57/84/142 59/85/143 60/86/144
s 4
f 51/77/122 50/76/121 42/68/145 41/67/146
s 15
f 52/78/130 51/77/129 41/67/147 44/70/148
s 2
f 49/75/126 52/78/125 44/70/149 43/69/150
s off
f 45/71/151 48/74/152 63/89/153 64/90/154
s 4
f 48/74/112 38/63/136 62/88/155 63/89/156
s 5
f 38/63/17 40/66/20 61/87/157 62/88/158
s 2
f 40/66/131 45/71/117 64/90/159 61/87/160
s off
f 50/76/161 49/75/162 66/92/163 67/93/164
s 2
f 49/75/126 43/69/150 65/91/165 66/92/166
s 6
f 43/69/23 42/68/22 68/94/167 65/91/168
s 4
f 42/68/145 50/76/121 67/93/169 68/94/170
s 5
f 62/88/158 61/87/157 56/82/171 55/81/172
s 4
f 63/89/156 62/88/155 55/81/173 53/80/174
s 2
f 61/87/160 64/90/159 54/79/175 56/82/176
f 66/92/166 65/91/165 59/85/177 57/84/178
s 4
f 68/94/170 67/93/169 58/83/179 60/86/180
s 6
f 65/91/168 68/94/167 60/86/181 59/85/182
s off
f 64/90/183 63/89/184 69/96/185 70/95/186
s 4
f 63/89/156 53/80/174 71/97/187 69/96/188
s 16
f 53/80/138 54/79/137 72/98/189 71/97/190
s 2
f 54/79/175 64/90/159 70/95/191 72/98/192
s off
f 67/93/193 66/92/194 70/100/195 69/99/196
s 2
f 66/92/166 57/84/178 72/101/197 70/100/198
s 17
f 57/84/142 58/83/141 71/102/199 72/101/200
s 4
f 58/83/179 67/93/169 69/99/201 71/102/202
s off
f 18/33/203 74/105/204 73/103/205 17/31/206
s 4
f 18/34/62 19/35/61 75/107/207 74/106/208
s 10
f 76/110/209 75/108/210 19/36/64 20/38/63
s 2
f 73/104/211 76/109/212 20/37/66 17/32/65
s 4
f 83/117/71 22/41/74 78/112/213 82/116/214
s 18
f 22/41/215 21/39/216 79/113/217 78/112/218
s 2
f 21/39/79 86/123/82 81/115/219 79/113/220
s off
f 73/103/221 74/105/222 77/111/223 80/114/224
f 77/111/225 82/116/226 81/115/227 80/114/228
s 4
f 74/105/208 83/117/71 82/116/214 77/111/229
f 74/106/208 75/107/207 84/119/72 83/118/71
s 10
f 85/122/78 84/120/77 75/108/210 76/110/209
s 2
f 86/124/82 85/121/81 76/109/212 73/104/211
f 81/115/219 86/123/82 73/103/211 80/114/230
s 4
f 82/116/214 78/112/213 88/126/231 87/125/232
s 18
f 78/112/218 79/113/217 89/127/233 88/126/234
s 2
f 79/113/220 81/115/219 90/128/235 89/127/236
s off
f 81/115/237 82/116/238 87/125/239 90/128/240
