# This file uses centimeters as units for non-parametric coordinates.

mtllib Pencil.mtl
g default
v 6.899666 1.416072 -2.280089
v 6.867742 1.478727 -2.279959
v 6.818019 1.528449 -2.279856
v 6.755365 1.560373 -2.279790
v 6.685912 1.571373 -2.279767
v 6.616460 1.560373 -2.279790
v 6.553805 1.528449 -2.279856
v 6.504083 1.478727 -2.279959
v 6.472159 1.416072 -2.280089
v 6.461159 1.346620 -2.280234
v 6.472159 1.277168 -2.280378
v 6.504083 1.214514 -2.280509
v 6.553806 1.164791 -2.280612
v 6.616460 1.132867 -2.280679
v 6.685912 1.121867 -2.280701
v 6.755365 1.132867 -2.280679
v 6.818019 1.164791 -2.280612
v 6.867742 1.214514 -2.280509
v 6.899666 1.277168 -2.280378
v 6.910666 1.346620 -2.280234
v 6.899666 1.406590 1.506689
v 6.867742 1.469244 1.506819
v 6.818019 1.518967 1.506923
v 6.755365 1.550891 1.506989
v 6.685912 1.561891 1.507012
v 6.616460 1.550891 1.506989
v 6.553805 1.518967 1.506923
v 6.504083 1.469244 1.506819
v 6.472159 1.406590 1.506689
v 6.461159 1.337138 1.506545
v 6.472159 1.267685 1.506400
v 6.504083 1.205031 1.506270
v 6.553806 1.155309 1.506167
v 6.616460 1.123385 1.506100
v 6.685912 1.112385 1.506077
v 6.755365 1.123385 1.506100
v 6.818019 1.155309 1.506167
v 6.867742 1.205031 1.506270
v 6.899666 1.267685 1.506400
v 6.910666 1.337138 1.506545
v 6.685912 1.346620 -2.280234
v 6.685912 1.337138 2.280234
v 6.616460 1.559861 -2.075573
v 6.685912 1.570862 -2.075550
v 6.755365 1.559861 -2.075573
v 6.818019 1.527938 -2.075639
v 6.867742 1.478215 -2.075743
v 6.899666 1.415561 -2.075873
v 6.910666 1.346109 -2.076018
v 6.899666 1.276656 -2.076162
v 6.867742 1.214002 -2.076292
v 6.818019 1.164280 -2.076396
v 6.755365 1.132356 -2.076462
v 6.685912 1.121356 -2.076485
v 6.616460 1.132356 -2.076462
v 6.553806 1.164280 -2.076396
v 6.504083 1.214002 -2.076292
v 6.472159 1.276656 -2.076162
v 6.461159 1.346109 -2.076018
v 6.472159 1.415561 -2.075873
v 6.504083 1.478215 -2.075743
v 6.553805 1.527938 -2.075639
v 6.616460 1.558799 -1.651311
v 6.685912 1.569799 -1.651288
v 6.755365 1.558799 -1.651311
v 6.818019 1.526875 -1.651377
v 6.867742 1.477153 -1.651481
v 6.899666 1.414499 -1.651611
v 6.910666 1.345046 -1.651755
v 6.899666 1.275594 -1.651900
v 6.867742 1.212940 -1.652030
v 6.818019 1.163217 -1.652133
v 6.755365 1.131293 -1.652200
v 6.685912 1.120293 -1.652223
v 6.616460 1.131293 -1.652200
v 6.553806 1.163217 -1.652133
v 6.504083 1.212940 -1.652030
v 6.472159 1.275594 -1.651900
v 6.461159 1.345046 -1.651755
v 6.472159 1.414499 -1.651611
v 6.504083 1.477153 -1.651481
v 6.553805 1.526875 -1.651377
v 6.613228 1.569807 -2.075548
v 6.685912 1.581319 -2.075524
v 6.613228 1.568745 -1.651286
v 6.685912 1.580257 -1.651262
v 6.758597 1.569807 -2.075548
v 6.758597 1.568745 -1.651286
v 6.824166 1.536398 -2.075618
v 6.824166 1.535336 -1.651356
v 6.876202 1.484362 -2.075728
v 6.876202 1.483300 -1.651465
v 6.909612 1.418793 -2.075865
v 6.909612 1.417731 -1.651603
v 6.921124 1.346109 -2.076018
v 6.921124 1.345046 -1.651755
v 6.909612 1.273424 -2.076170
v 6.909612 1.272362 -1.651908
v 6.876202 1.207855 -2.076308
v 6.876202 1.206793 -1.652045
v 6.824166 1.155819 -2.076417
v 6.824166 1.154757 -1.652155
v 6.758597 1.122410 -2.076487
v 6.758597 1.121347 -1.652225
v 6.685912 1.110898 -2.076511
v 6.685912 1.109836 -1.652249
v 6.613228 1.122410 -2.076487
v 6.613228 1.121347 -1.652225
v 6.547659 1.155819 -2.076417
v 6.547659 1.154757 -1.652155
v 6.495622 1.207855 -2.076308
v 6.495622 1.206793 -1.652045
v 6.462213 1.273424 -2.076170
v 6.462213 1.272362 -1.651908
v 6.450701 1.346109 -2.076018
v 6.450701 1.345046 -1.651755
v 6.462213 1.418793 -2.075865
v 6.462213 1.417730 -1.651603
v 6.495622 1.484362 -2.075728
v 6.495622 1.483300 -1.651465
v 6.547659 1.536398 -2.075618
v 6.547659 1.535336 -1.651356
vt 0.648603 0.107966
vt 0.626409 0.064408
vt 0.591842 0.029841
vt 0.548284 0.007647
vt 0.500000 -0.000000
vt 0.451716 0.007647
vt 0.408159 0.029841
vt 0.373591 0.064409
vt 0.351397 0.107966
vt 0.343750 0.156250
vt 0.351397 0.204534
vt 0.373591 0.248091
vt 0.408159 0.282659
vt 0.451716 0.304853
vt 0.500000 0.312500
vt 0.548284 0.304853
vt 0.591841 0.282659
vt 0.626409 0.248091
vt 0.648603 0.204534
vt 0.656250 0.156250
vt 0.375000 0.312500
vt 0.387500 0.312500
vt 0.400000 0.312500
vt 0.412500 0.312500
vt 0.425000 0.312500
vt 0.437500 0.312500
vt 0.450000 0.312500
vt 0.462500 0.312500
vt 0.475000 0.312500
vt 0.487500 0.312500
vt 0.500000 0.312500
vt 0.512500 0.312500
vt 0.525000 0.312500
vt 0.537500 0.312500
vt 0.550000 0.312500
vt 0.562500 0.312500
vt 0.575000 0.312500
vt 0.587500 0.312500
vt 0.600000 0.312500
vt 0.612500 0.312500
vt 0.625000 0.312500
vt 0.375000 0.688440
vt 0.387500 0.688440
vt 0.400000 0.688440
vt 0.412500 0.688440
vt 0.425000 0.688440
vt 0.437500 0.688440
vt 0.450000 0.688440
vt 0.462500 0.688440
vt 0.475000 0.688440
vt 0.487500 0.688440
vt 0.500000 0.688440
vt 0.512500 0.688440
vt 0.525000 0.688440
vt 0.537500 0.688440
vt 0.550000 0.688440
vt 0.562500 0.688440
vt 0.575000 0.688440
vt 0.587500 0.688440
vt 0.600000 0.688440
vt 0.612500 0.688440
vt 0.625000 0.688440
vt 0.648603 0.795466
vt 0.626409 0.751908
vt 0.591842 0.717341
vt 0.548284 0.695147
vt 0.500000 0.687500
vt 0.451716 0.695147
vt 0.408159 0.717341
vt 0.373591 0.751909
vt 0.351397 0.795466
vt 0.343750 0.843750
vt 0.351397 0.892034
vt 0.373591 0.935591
vt 0.408159 0.970159
vt 0.451716 0.992353
vt 0.500000 1.000000
vt 0.548284 0.992353
vt 0.591841 0.970159
vt 0.626409 0.935591
vt 0.648603 0.892034
vt 0.656250 0.843750
vt 0.500000 0.150000
vt 0.500000 0.837500
vt 0.437500 0.332774
vt 0.425000 0.332774
vt 0.412500 0.332774
vt 0.400000 0.332774
vt 0.387500 0.332774
vt 0.625000 0.332774
vt 0.375000 0.332774
vt 0.612500 0.332774
vt 0.600000 0.332774
vt 0.587500 0.332774
vt 0.575000 0.332774
vt 0.562500 0.332774
vt 0.550000 0.332774
vt 0.537500 0.332774
vt 0.525000 0.332774
vt 0.512500 0.332774
vt 0.500000 0.332774
vt 0.487500 0.332774
vt 0.475000 0.332774
vt 0.462500 0.332774
vt 0.450000 0.332774
vt 0.437500 0.374893
vt 0.425000 0.374893
vt 0.412500 0.374893
vt 0.400000 0.374893
vt 0.387500 0.374893
vt 0.625000 0.374893
vt 0.375000 0.374893
vt 0.612500 0.374893
vt 0.600000 0.374893
vt 0.587500 0.374893
vt 0.575000 0.374893
vt 0.562500 0.374893
vt 0.550000 0.374893
vt 0.537500 0.374893
vt 0.525000 0.374893
vt 0.512500 0.374893
vt 0.500000 0.374893
vt 0.487500 0.374893
vt 0.475000 0.374893
vt 0.462500 0.374893
vt 0.450000 0.374893
vt 0.425000 0.332774
vt 0.437500 0.332774
vt 0.437500 0.374893
vt 0.425000 0.374893
vt 0.412500 0.332774
vt 0.412500 0.374893
vt 0.400000 0.332774
vt 0.400000 0.374893
vt 0.387500 0.332774
vt 0.387500 0.374893
vt 0.375000 0.332774
vt 0.375000 0.374893
vt 0.612500 0.332774
vt 0.625000 0.332774
vt 0.625000 0.374893
vt 0.612500 0.374893
vt 0.600000 0.332774
vt 0.600000 0.374893
vt 0.587500 0.332774
vt 0.587500 0.374893
vt 0.575000 0.332774
vt 0.575000 0.374893
vt 0.562500 0.332774
vt 0.562500 0.374893
vt 0.550000 0.332774
vt 0.550000 0.374893
vt 0.537500 0.332774
vt 0.537500 0.374893
vt 0.525000 0.332774
vt 0.525000 0.374893
vt 0.512500 0.332774
vt 0.512500 0.374893
vt 0.500000 0.332774
vt 0.500000 0.374893
vt 0.487500 0.332774
vt 0.487500 0.374893
vt 0.475000 0.332774
vt 0.475000 0.374893
vt 0.462500 0.332774
vt 0.462500 0.374893
vt 0.450000 0.332774
vt 0.450000 0.374893
vn 0.950931 0.309402 0.000775
vn 0.808813 0.588064 0.001472
vn 0.809221 0.587503 0.001471
vn 0.951183 0.308627 0.000773
vn 0.587580 0.809163 0.002026
vn 0.587989 0.808866 0.002026
vn 0.308890 0.951095 0.002382
vn 0.309143 0.951013 0.002382
vn 0.000000 0.999997 0.002504
vn 0.000000 0.999997 0.002504
vn -0.308890 0.951095 0.002382
vn -0.309143 0.951013 0.002382
vn -0.587581 0.809163 0.002026
vn -0.587989 0.808866 0.002026
vn -0.808813 0.588064 0.001473
vn -0.809221 0.587502 0.001471
vn -0.950931 0.309404 0.000775
vn -0.951183 0.308628 0.000773
vn -1.000000 0.000428 0.000001
vn -1.000000 -0.000429 -0.000001
vn -0.951183 -0.308628 -0.000773
vn -0.950930 -0.309405 -0.000775
vn -0.809221 -0.587503 -0.001471
vn -0.808812 -0.588065 -0.001473
vn -0.587989 -0.808866 -0.002026
vn -0.587581 -0.809163 -0.002026
vn -0.309143 -0.951012 -0.002382
vn -0.308891 -0.951094 -0.002382
vn 0.000000 -0.999997 -0.002504
vn 0.000000 -0.999997 -0.002504
vn 0.309144 -0.951012 -0.002381
vn 0.308891 -0.951094 -0.002382
vn 0.587989 -0.808866 -0.002025
vn 0.587581 -0.809163 -0.002026
vn 0.809221 -0.587503 -0.001471
vn 0.808812 -0.588065 -0.001473
vn 0.951183 -0.308628 -0.000773
vn 0.950930 -0.309405 -0.000775
vn 1.000000 0.000427 0.000001
vn 1.000000 -0.000430 -0.000001
vn 0.000002 0.002077 -0.999998
vn 0.000002 0.002079 -0.999998
vn 0.000000 0.002079 -0.999998
vn 0.000000 0.002081 -0.999998
vn 0.000000 0.002079 -0.999998
vn 0.000000 0.002079 -0.999998
vn 0.000000 0.002079 -0.999998
vn 0.000000 0.002081 -0.999998
vn -0.000002 0.002077 -0.999998
vn -0.000002 0.002079 -0.999998
vn 0.000000 0.002083 -0.999998
vn 0.000000 0.002079 -0.999998
vn 0.000000 0.002077 -0.999998
vn 0.000000 0.002077 -0.999998
vn 0.000003 0.002078 -0.999998
vn 0.000000 0.002077 -0.999998
vn -0.000003 0.002078 -0.999998
vn 0.000000 0.002077 -0.999998
vn 0.000000 0.002077 -0.999998
vn 0.000000 0.002079 -0.999998
vn 0.000000 0.002083 -0.999998
vn 0.913671 0.295563 0.279012
vn 0.777500 0.563580 0.279055
vn 0.000000 0.009050 0.999959
vn 0.565051 0.776419 0.279089
vn 0.297120 0.913136 0.279111
vn 0.000000 0.960257 0.279119
vn -0.297120 0.913135 0.279111
vn -0.565052 0.776418 0.279089
vn -0.777500 0.563580 0.279055
vn -0.913671 0.295565 0.279011
vn -0.960301 -0.001304 0.278963
vn -0.912931 -0.297932 0.278916
vn -0.776302 -0.565319 0.278872
vn -0.563854 -0.777379 0.278838
vn -0.296381 -0.913466 0.278816
vn 0.000000 -0.960347 0.278808
vn 0.296381 -0.913466 0.278815
vn 0.563854 -0.777379 0.278838
vn 0.776302 -0.565319 0.278872
vn 0.912931 -0.297932 0.278915
vn 0.960301 -0.001304 0.278963
vn 0.000000 0.999997 0.002504
vn -0.308890 0.951095 0.002382
vn -0.309142 0.951013 0.002381
vn 0.000000 0.999997 0.002504
vn 0.308890 0.951095 0.002382
vn 0.309142 0.951013 0.002381
vn 0.587580 0.809163 0.002026
vn 0.587988 0.808867 0.002025
vn 0.808813 0.588065 0.001473
vn 0.809221 0.587503 0.001471
vn 0.950931 0.309403 0.000775
vn 0.951183 0.308627 0.000773
vn 1.000000 0.000428 0.000001
vn 1.000000 -0.000430 -0.000001
vn 0.951182 -0.308628 -0.000773
vn 0.950930 -0.309404 -0.000775
vn 0.809221 -0.587503 -0.001471
vn 0.808813 -0.588064 -0.001473
vn 0.587989 -0.808866 -0.002026
vn 0.587581 -0.809163 -0.002026
vn 0.309142 -0.951013 -0.002381
vn 0.308890 -0.951095 -0.002382
vn 0.000000 -0.999997 -0.002504
vn 0.000000 -0.999997 -0.002504
vn -0.309142 -0.951013 -0.002381
vn -0.308890 -0.951095 -0.002382
vn -0.587989 -0.808866 -0.002025
vn -0.587581 -0.809163 -0.002026
vn -0.809221 -0.587503 -0.001471
vn -0.808813 -0.588064 -0.001473
vn -0.951182 -0.308628 -0.000773
vn -0.950930 -0.309404 -0.000775
vn -1.000000 0.000429 0.000001
vn -1.000000 -0.000429 -0.000001
vn -0.950930 0.309404 0.000775
vn -0.951182 0.308628 0.000773
vn -0.808813 0.588064 0.001473
vn -0.809221 0.587502 0.001471
vn -0.587581 0.809163 0.002026
vn -0.587989 0.808866 0.002025
vn 0.000000 0.999997 0.002504
vn -0.308891 0.951094 0.002382
vn -0.309143 0.951012 0.002381
vn 0.000000 0.999997 0.002504
vn 0.308891 0.951095 0.002382
vn 0.309143 0.951013 0.002381
vn 0.587581 0.809163 0.002026
vn 0.587989 0.808866 0.002025
vn 0.808813 0.588064 0.001473
vn 0.809221 0.587503 0.001471
vn 0.950931 0.309403 0.000775
vn 0.951183 0.308627 0.000773
vn 1.000000 0.000428 0.000001
vn 1.000000 -0.000430 -0.000001
vn 0.951183 -0.308628 -0.000773
vn 0.950930 -0.309404 -0.000775
vn 0.809221 -0.587503 -0.001471
vn 0.808813 -0.588065 -0.001473
vn 0.587989 -0.808866 -0.002025
vn 0.587581 -0.809163 -0.002026
vn 0.309144 -0.951012 -0.002381
vn 0.308891 -0.951094 -0.002382
vn 0.000000 -0.999997 -0.002504
vn 0.000000 -0.999997 -0.002504
vn -0.309143 -0.951013 -0.002381
vn -0.308891 -0.951094 -0.002382
vn -0.587989 -0.808866 -0.002025
vn -0.587581 -0.809163 -0.002026
vn -0.809221 -0.587503 -0.001471
vn -0.808813 -0.588065 -0.001473
vn -0.951183 -0.308628 -0.000773
vn -0.950930 -0.309404 -0.000775
vn -1.000000 0.000429 0.000001
vn -1.000000 -0.000429 -0.000001
vn -0.950930 0.309404 0.000775
vn -0.951182 0.308628 0.000773
vn -0.808813 0.588064 0.001473
vn -0.809221 0.587502 0.001471
vn -0.587582 0.809162 0.002026
vn -0.587990 0.808866 0.002025
vn 0.000000 0.002531 -0.999997
vn -0.000120 0.002470 -0.999997
vn -0.000120 0.002470 -0.999997
vn 0.000000 0.002531 -0.999997
vn 0.000117 -0.002458 0.999997
vn -0.000000 -0.002498 0.999997
vn -0.000000 -0.002498 0.999997
vn 0.000117 -0.002458 0.999997
vn 0.000120 0.002479 -0.999997
vn 0.000120 0.002479 -0.999997
vn -0.000117 -0.002460 0.999997
vn -0.000117 -0.002460 0.999997
vn 0.000188 0.002366 -0.999997
vn 0.000188 0.002366 -0.999997
vn -0.000189 -0.002361 0.999997
vn -0.000189 -0.002361 0.999997
vn 0.000185 0.002240 -0.999997
vn 0.000185 0.002240 -0.999997
vn -0.000184 -0.002236 0.999997
vn -0.000184 -0.002236 0.999997
vn 0.000116 0.002137 -0.999998
vn 0.000116 0.002137 -0.999998
vn -0.000109 -0.002133 0.999998
vn -0.000109 -0.002133 0.999998
vn -0.000000 0.002099 -0.999998
vn -0.000000 0.002099 -0.999998
vn -0.000003 -0.002097 0.999998
vn -0.000003 -0.002097 0.999998
vn -0.000115 0.002136 -0.999998
vn -0.000115 0.002136 -0.999998
vn 0.000102 -0.002134 0.999998
vn 0.000102 -0.002134 0.999998
vn -0.000184 0.002237 -0.999997
vn -0.000184 0.002237 -0.999997
vn 0.000179 -0.002233 0.999997
vn 0.000179 -0.002233 0.999997
vn -0.000187 0.002362 -0.999997
vn -0.000187 0.002362 -0.999997
vn 0.000187 -0.002360 0.999997
vn 0.000187 -0.002360 0.999997
vn -0.000118 0.002468 -0.999997
vn -0.000118 0.002468 -0.999997
vn 0.000117 -0.002467 0.999997
vn 0.000117 -0.002467 0.999997
vn 0.000000 0.002511 -0.999997
vn 0.000000 0.002511 -0.999997
vn -0.000000 -0.002510 0.999997
vn -0.000000 -0.002510 0.999997
vn 0.000118 0.002457 -0.999997
vn 0.000118 0.002457 -0.999997
vn -0.000117 -0.002472 0.999997
vn -0.000117 -0.002472 0.999997
vn 0.000187 0.002353 -0.999997
vn 0.000187 0.002353 -0.999997
vn -0.000187 -0.002365 0.999997
vn -0.000187 -0.002365 0.999997
vn 0.000184 0.002233 -0.999997
vn 0.000184 0.002233 -0.999997
vn -0.000179 -0.002238 0.999997
vn -0.000179 -0.002238 0.999997
vn 0.000115 0.002131 -0.999998
vn 0.000115 0.002131 -0.999998
vn -0.000102 -0.002138 0.999998
vn -0.000102 -0.002138 0.999998
vn 0.000000 0.002100 -0.999998
vn 0.000000 0.002100 -0.999998
vn 0.000003 -0.002096 0.999998
vn 0.000003 -0.002096 0.999998
vn -0.000116 0.002140 -0.999998
vn -0.000116 0.002140 -0.999998
vn 0.000109 -0.002134 0.999998
vn 0.000109 -0.002134 0.999998
vn -0.000185 0.002240 -0.999997
vn -0.000185 0.002240 -0.999997
vn 0.000184 -0.002235 0.999997
vn 0.000184 -0.002235 0.999997
vn -0.000188 0.002357 -0.999997
vn -0.000188 0.002357 -0.999997
vn 0.000189 -0.002359 0.999997
vn 0.000189 -0.002359 0.999997
s 1
g pCylinder2
usemtl initialShadingGroup
f 1/21/1 2/22/2 47/89/3 48/91/4
f 2/22/2 3/23/5 46/88/6 47/89/3
f 3/23/5 4/24/7 45/87/8 46/88/6
f 4/24/7 5/25/9 44/86/10 45/87/8
f 5/25/9 6/26/11 43/85/12 44/86/10
f 6/26/11 7/27/13 62/105/14 43/85/12
f 7/27/13 8/28/15 61/104/16 62/105/14
f 8/28/15 9/29/17 60/103/18 61/104/16
f 9/29/17 10/30/19 59/102/20 60/103/18
f 10/30/19 11/31/21 58/101/22 59/102/20
f 11/31/21 12/32/23 57/100/24 58/101/22
f 12/32/23 13/33/25 56/99/26 57/100/24
f 13/33/25 14/34/27 55/98/28 56/99/26
f 14/34/27 15/35/29 54/97/30 55/98/28
f 15/35/29 16/36/31 53/96/32 54/97/30
f 16/36/31 17/37/33 52/95/34 53/96/32
f 17/37/33 18/38/35 51/94/36 52/95/34
f 18/38/35 19/39/37 50/93/38 51/94/36
f 19/39/37 20/40/39 49/92/40 50/93/38
f 20/40/39 1/41/1 48/90/4 49/92/40
s 2
f 2/2/41 1/1/42 41/83/43
f 3/3/44 2/2/41 41/83/43
f 4/4/45 3/3/44 41/83/43
f 5/5/46 4/4/45 41/83/43
f 6/6/47 5/5/46 41/83/43
f 7/7/48 6/6/47 41/83/43
f 8/8/49 7/7/48 41/83/43
f 9/9/50 8/8/49 41/83/43
f 10/10/51 9/9/50 41/83/43
f 11/11/52 10/10/51 41/83/43
f 12/12/53 11/11/52 41/83/43
f 13/13/54 12/12/53 41/83/43
f 14/14/55 13/13/54 41/83/43
f 15/15/56 14/14/55 41/83/43
f 16/16/57 15/15/56 41/83/43
f 17/17/58 16/16/57 41/83/43
f 18/18/59 17/17/58 41/83/43
f 19/19/60 18/18/59 41/83/43
f 20/20/61 19/19/60 41/83/43
f 1/1/42 20/20/61 41/83/43
s 3
f 21/81/62 22/80/63 42/84/64
f 22/80/63 23/79/65 42/84/64
f 23/79/65 24/78/66 42/84/64
f 24/78/66 25/77/67 42/84/64
f 25/77/67 26/76/68 42/84/64
f 26/76/68 27/75/69 42/84/64
f 27/75/69 28/74/70 42/84/64
f 28/74/70 29/73/71 42/84/64
f 29/73/71 30/72/72 42/84/64
f 30/72/72 31/71/73 42/84/64
f 31/71/73 32/70/74 42/84/64
f 32/70/74 33/69/75 42/84/64
f 33/69/75 34/68/76 42/84/64
f 34/68/76 35/67/77 42/84/64
f 35/67/77 36/66/78 42/84/64
f 36/66/78 37/65/79 42/84/64
f 37/65/79 38/64/80 42/84/64
f 38/64/80 39/63/81 42/84/64
f 39/63/81 40/82/82 42/84/64
f 40/82/82 21/81/62 42/84/64
s 4
f 84/127/83 83/128/84 85/129/85 86/130/86
f 87/131/87 84/127/83 86/130/86 88/132/88
f 89/133/89 87/131/87 88/132/88 90/134/90
f 91/135/91 89/133/89 90/134/90 92/136/92
f 93/137/93 91/135/91 92/136/92 94/138/94
f 95/139/95 93/140/93 94/141/94 96/142/96
f 97/143/97 95/139/95 96/142/96 98/144/98
f 99/145/99 97/143/97 98/144/98 100/146/100
f 101/147/101 99/145/99 100/146/100 102/148/102
f 103/149/103 101/147/101 102/148/102 104/150/104
f 105/151/105 103/149/103 104/150/104 106/152/106
f 107/153/107 105/151/105 106/152/106 108/154/108
f 109/155/109 107/153/107 108/154/108 110/156/110
f 111/157/111 109/155/109 110/156/110 112/158/112
f 113/159/113 111/157/111 112/158/112 114/160/114
f 115/161/115 113/159/113 114/160/114 116/162/116
f 117/163/117 115/161/115 116/162/116 118/164/118
f 119/165/119 117/163/117 118/164/118 120/166/120
f 121/167/121 119/165/119 120/166/120 122/168/122
f 83/128/84 121/167/121 122/168/122 85/129/85
s 5
f 64/107/123 63/106/124 26/47/125 25/46/126
f 65/108/127 64/107/123 25/46/126 24/45/128
f 66/109/129 65/108/127 24/45/128 23/44/130
f 67/110/131 66/109/129 23/44/130 22/43/132
f 68/112/133 67/110/131 22/43/132 21/42/134
f 69/113/135 68/111/133 21/62/134 40/61/136
f 70/114/137 69/113/135 40/61/136 39/60/138
f 71/115/139 70/114/137 39/60/138 38/59/140
f 72/116/141 71/115/139 38/59/140 37/58/142
f 73/117/143 72/116/141 37/58/142 36/57/144
f 74/118/145 73/117/143 36/57/144 35/56/146
f 75/119/147 74/118/145 35/56/146 34/55/148
f 76/120/149 75/119/147 34/55/148 33/54/150
f 77/121/151 76/120/149 33/54/150 32/53/152
f 78/122/153 77/121/151 32/53/152 31/52/154
f 79/123/155 78/122/153 31/52/154 30/51/156
f 80/124/157 79/123/155 30/51/156 29/50/158
f 81/125/159 80/124/157 29/50/158 28/49/160
f 82/126/161 81/125/159 28/49/160 27/48/162
f 63/106/124 82/126/161 27/48/162 26/47/125
s 6
f 44/86/163 43/85/164 83/128/165 84/127/166
s 7
f 63/106/167 64/107/168 86/130/169 85/129/170
s 6
f 45/87/171 44/86/163 84/127/166 87/131/172
s 7
f 64/107/168 65/108/173 88/132/174 86/130/169
s 6
f 46/88/175 45/87/171 87/131/172 89/133/176
s 7
f 65/108/173 66/109/177 90/134/178 88/132/174
s 6
f 47/89/179 46/88/175 89/133/176 91/135/180
s 7
f 66/109/177 67/110/181 92/136/182 90/134/178
s 6
f 48/91/183 47/89/179 91/135/180 93/137/184
s 7
f 67/110/181 68/112/185 94/138/186 92/136/182
s 6
f 49/92/187 48/90/183 93/140/184 95/139/188
s 7
f 68/111/185 69/113/189 96/142/190 94/141/186
s 6
f 50/93/191 49/92/187 95/139/188 97/143/192
s 7
f 69/113/189 70/114/193 98/144/194 96/142/190
s 6
f 51/94/195 50/93/191 97/143/192 99/145/196
s 7
f 70/114/193 71/115/197 100/146/198 98/144/194
s 6
f 52/95/199 51/94/195 99/145/196 101/147/200
s 7
f 71/115/197 72/116/201 102/148/202 100/146/198
s 6
f 53/96/203 52/95/199 101/147/200 103/149/204
s 7
f 72/116/201 73/117/205 104/150/206 102/148/202
s 6
f 54/97/207 53/96/203 103/149/204 105/151/208
s 7
f 73/117/205 74/118/209 106/152/210 104/150/206
s 6
f 55/98/211 54/97/207 105/151/208 107/153/212
s 7
f 74/118/209 75/119/213 108/154/214 106/152/210
s 6
f 56/99/215 55/98/211 107/153/212 109/155/216
s 7
f 75/119/213 76/120/217 110/156/218 108/154/214
s 6
f 57/100/219 56/99/215 109/155/216 111/157/220
s 7
f 76/120/217 77/121/221 112/158/222 110/156/218
s 6
f 58/101/223 57/100/219 111/157/220 113/159/224
s 7
f 77/121/221 78/122/225 114/160/226 112/158/222
s 6
f 59/102/227 58/101/223 113/159/224 115/161/228
s 7
f 78/122/225 79/123/229 116/162/230 114/160/226
s 6
f 60/103/231 59/102/227 115/161/228 117/163/232
s 7
f 79/123/229 80/124/233 118/164/234 116/162/230
s 6
f 61/104/235 60/103/231 117/163/232 119/165/236
s 7
f 80/124/233 81/125/237 120/166/238 118/164/234
s 6
f 62/105/239 61/104/235 119/165/236 121/167/240
s 7
f 81/125/237 82/126/241 122/168/242 120/166/238
s 6
f 43/85/164 62/105/239 121/167/240 83/128/165
s 7
f 82/126/241 63/106/167 85/129/170 122/168/242
